<mxfile host="www.draw.io" modified="2019-10-30T06:38:13.289Z" agent="Mozilla/5.0 (Macintosh; Intel Mac OS X 10_14_6) AppleWebKit/537.36 (KHTML, like Gecko) Chrome/78.0.3904.70 Safari/537.36" etag="pYmVvhbu-nE71Wyg6EzM" version="12.1.8" type="github" pages="1">
  <diagram id="sLFn4TQ0SH1EAPKTDHA7" name="第 1 页">
    <mxGraphModel dx="1249" dy="762" grid="1" gridSize="10" guides="1" tooltips="1" connect="1" arrows="1" fold="1" page="1" pageScale="1" pageWidth="1169" pageHeight="827" math="0" shadow="0">
      <root>
        <mxCell id="0"/>
        <mxCell id="1" parent="0"/>
        <mxCell id="QVn3-D223ngVP1Tvs2Q8-2" value="&lt;font style=&quot;font-size: 16px&quot;&gt;子龙数据库&lt;/font&gt;" style="shape=cylinder;whiteSpace=wrap;html=1;boundedLbl=1;backgroundOutline=1;fillColor=#B8E5FF;" parent="1" vertex="1">
          <mxGeometry x="30" y="260" width="90" height="130" as="geometry"/>
        </mxCell>
        <mxCell id="xlfRkcf_6DxHYjirSs4z-9" value="" style="endArrow=classic;html=1;exitX=1;exitY=0.5;exitDx=0;exitDy=0;entryX=-0.013;entryY=0.148;entryDx=0;entryDy=0;entryPerimeter=0;dashed=1;" edge="1" parent="1" source="QVn3-D223ngVP1Tvs2Q8-2" target="xlfRkcf_6DxHYjirSs4z-14">
          <mxGeometry width="50" height="50" relative="1" as="geometry">
            <mxPoint x="140" y="520" as="sourcePoint"/>
            <mxPoint x="220" y="255" as="targetPoint"/>
          </mxGeometry>
        </mxCell>
        <mxCell id="xlfRkcf_6DxHYjirSs4z-10" value="" style="endArrow=classic;html=1;exitX=1;exitY=0.5;exitDx=0;exitDy=0;entryX=-0.003;entryY=0.321;entryDx=0;entryDy=0;entryPerimeter=0;dashed=1;" edge="1" parent="1" source="QVn3-D223ngVP1Tvs2Q8-2" target="xlfRkcf_6DxHYjirSs4z-14">
          <mxGeometry width="50" height="50" relative="1" as="geometry">
            <mxPoint x="130" y="335" as="sourcePoint"/>
            <mxPoint x="230" y="295" as="targetPoint"/>
          </mxGeometry>
        </mxCell>
        <mxCell id="xlfRkcf_6DxHYjirSs4z-11" value="" style="endArrow=classic;html=1;exitX=1;exitY=0.5;exitDx=0;exitDy=0;entryX=0;entryY=0.5;entryDx=0;entryDy=0;dashed=1;" edge="1" parent="1" source="QVn3-D223ngVP1Tvs2Q8-2" target="xlfRkcf_6DxHYjirSs4z-14">
          <mxGeometry width="50" height="50" relative="1" as="geometry">
            <mxPoint x="140" y="345" as="sourcePoint"/>
            <mxPoint x="240" y="325" as="targetPoint"/>
          </mxGeometry>
        </mxCell>
        <mxCell id="xlfRkcf_6DxHYjirSs4z-12" value="" style="endArrow=classic;html=1;exitX=1;exitY=0.5;exitDx=0;exitDy=0;entryX=-0.003;entryY=0.693;entryDx=0;entryDy=0;entryPerimeter=0;dashed=1;" edge="1" parent="1" source="QVn3-D223ngVP1Tvs2Q8-2" target="xlfRkcf_6DxHYjirSs4z-14">
          <mxGeometry width="50" height="50" relative="1" as="geometry">
            <mxPoint x="150" y="355" as="sourcePoint"/>
            <mxPoint x="230" y="360" as="targetPoint"/>
          </mxGeometry>
        </mxCell>
        <mxCell id="xlfRkcf_6DxHYjirSs4z-13" value="" style="endArrow=classic;html=1;exitX=1;exitY=0.5;exitDx=0;exitDy=0;entryX=0.003;entryY=0.861;entryDx=0;entryDy=0;entryPerimeter=0;dashed=1;" edge="1" parent="1" source="QVn3-D223ngVP1Tvs2Q8-2" target="xlfRkcf_6DxHYjirSs4z-14">
          <mxGeometry width="50" height="50" relative="1" as="geometry">
            <mxPoint x="160" y="365" as="sourcePoint"/>
            <mxPoint x="220" y="410" as="targetPoint"/>
          </mxGeometry>
        </mxCell>
        <mxCell id="xlfRkcf_6DxHYjirSs4z-17" value="&lt;font style=&quot;font-size: 22px&quot;&gt;canal&lt;/font&gt;" style="rounded=1;whiteSpace=wrap;html=1;" vertex="1" parent="1">
          <mxGeometry x="550" y="290" width="120" height="60" as="geometry"/>
        </mxCell>
        <mxCell id="xlfRkcf_6DxHYjirSs4z-19" value="" style="endArrow=classic;html=1;exitX=0;exitY=0.5;exitDx=0;exitDy=0;dashed=1;" edge="1" parent="1" source="xlfRkcf_6DxHYjirSs4z-17">
          <mxGeometry width="50" height="50" relative="1" as="geometry">
            <mxPoint x="590" y="490" as="sourcePoint"/>
            <mxPoint x="422" y="321" as="targetPoint"/>
          </mxGeometry>
        </mxCell>
        <mxCell id="xlfRkcf_6DxHYjirSs4z-21" value="" style="shape=image;verticalLabelPosition=bottom;labelBackgroundColor=#ffffff;verticalAlign=top;aspect=fixed;imageAspect=0;image=data:image/png,iVBORw0KGgoAAAANSUhEUgAAA88AAAEjCAYAAAAMkjMTAAAAGXRFWHRTb2Z0d2FyZQBBZG9iZSBJbWFnZVJlYWR5ccllPAAAQIxJREFUeNrs3e1127i2gOE9WfN/dCsYpgJrKghTQZQKQlcQpQLLFTipQE4FciqQUoHsCqypQD4V5BrH4AnDkBI/sEGAfJ+1uGaSSBQJgiA2AAIiAAAAAAAAAAAAAAAAAAAAAABFf0R0rOnzNn/eLp63pLCdcihsD8/b/fO247IDAAAAAMbCBMbL523zvP1wvG3svhOSGQAAAAAQm9nzlj1ve4WAuW7b29+ckfwAAAAAgNCD5tXzdvQYNJe3oz0GgmgAAAAAAEEzQTQAAAAAIBZZYEFzVRCdcZkAAAAAAENInrdtwEFzedsKE4sBAAAAADxaSNi9zad6oRdcPgAAAACAtpsIg+bydsNlBAAAAABoMBNvxTRMu8kwbiYTAwAAAAA4DZx9rtnsc21oAmgAAAAAAIEzATQAAAAAgMCZABoAAAAAMKAxvePc5B1oAAAAAABaGcOs2szCDQAAAABQs5hg4JxvrAMNAAAAADgred6OEw6ejzYNAAAAAACoNaX3nHn/GQAAAADQWkbg/L8tIzsAAAAAwLj84WAfZqmmR2HJptzT8/ba/hcAAAAAMAJ/OtjHcsDA+f55OzxvD6W/v5CX94/nAxzTzKbJiuwFAAAAAMgDRd+ThG3kZWj0rOHxZfY7vicPoyceAAAAAPBfK48B6Vr6zWad2H34Ot4V2QMAAAAA4KvXeS9uh1/P7T7pfQYAAAAAqMs8BKA3isd/I8y8DQAAAABQpt176yPw1G4A2JNNAAAAAGC6EhlPj612AJ2QXQAAAABgmpYS51DtOppDuJdkFwAAAACYJq2ln4Yc5qw1DH1DdgEAAACAadLqpZ0PeE5zxfMCAAAAAExMKnrrOA9Nax3olGwDAAAAANOi9b5zEsC5JcJ7zwAAAACAklcdvnOhcBx3z9shgPQ42GNx7YKsBgAAAADTCp4TheP4FlCaaBxLQlYDAAAAgGl5FPfDmmcBnd9M4fweyTYAAAAAMC1jWp6qjsayVQAAAACASL0K4BgOAabLgawBAAAAAAgpeH4IMF0eyBoAAAAAgK7B84wkAwAAAAAQPEMLDQ8AAAAAMJHg+Ykk64y0AwAAAICJBM8aLgJMlwuyBgAAAAAgpOA5CTBdErIGAAAAAKCPR3G/BnJI7wPPFM7vkWwDAAAAAPHq0vN8UDiORUBponEsB7IaAAAAABA89/UuoDTROBaCZwAAAACYWPD8oHAcprc3CSA9EtHpeX4gqwEAAADAtILne6VjuQogPbSO4Z6sBgAAAADT80Npmw94TnPF8wIAAAAATNBGKcjcD3hOe6Vz2pBdAAAAACBuXdd5/q50PKb392aAdLgRvV7v72QzAAAAAIjbHx2/l4ju2sWXz9utpzTInre14v5fS7yzbafy0qhwYa95vp1yKGxmojTzvveOWw0AAADAVGkNc863zFPgrHkO+8iuqQmMl6IzLH9j951w6wAAAACYEu3A02yaQ7hvPBx/FsF1nNnj3HtIj2KjQmZ/GwAAAABGzQQ+R0+Blsv3keeeAsVj4MGhObaVp2t4Ko1WBNEAAAAAxm7lMdAy7yUnPY41sfvwdbwrgmaCaAAAAADIAzHfQZh5dzZrGGjlQ5I34j8YDDEQzAILmqvSLeO2AgAAABCaPxzsY/W8XQ10/GYm54O8zOpclM8OPR/ouK4lrJ5nkxam1z2NJF/u5GXG9QO3KAAAAICxGKL3OeQttF7nRaTX52iPHQAAAABGIyNoDnKG7ZsRpOcNtxcAAACAMdkSOP83DUIwG9n12AqTiQEAAAAYiUSmPXz7KP1mA3cZOO9HmL57AmgAAAAAY7GYcPAcwvu5Yw2cCaABAAAAjM4Y3rON8b3csQfOBNAAAAAARmdK7z9vSfPJpjkAAAAA9EIvqF/09gMAAAAAATSB8wm8Zw4AAAAABNAEzickwgznCbcZAAAAgLEE0Kw5rIO1tXn/GQAAAMDIjOG93JDes80InP+3ZdxeAAAAADT94fn3zDuqa4lvqaGn5+3yebsL5HhM+j0KSzYVr89r+18A4Ulr/v5gNwAAgOD96fn3TPB5bwPoNJI02tnAOaQK3nLAwPnepsVD6e8v5OX94/kAxzSzabLilgYGldiy/U3h/5uWKztbrpjnBA1hAAAABZmEPdnVUcIcDjwbIN02Ni1mDY8vs9/xfb3oiQeGCZhN45XLySH3dp8JyQsAAPAz0FoFFkQf7TGFGoitPKbFumflNbH78HW8q8CuVRrhuYW4/FdKw0iwQbOP+3vboxxiYkIAAODMH4EcRz7s9uOAlWQzTPDL8/ZZwh0y6OtdZzOE8tL+14W5rWTPPVzDkN59Th1Wuq89BNAmQNl3TMPZiev71DMvmbzzr8PzT+y1uSgdsznGc8OGk1Igt+uQNvcV+086BIi7gfK1OZ8rW2b78rbj+f5w9Ps7ewwAAABBBYeZ+F0bei/NhyQPLZO4ZxT3MeN6FtD1SiWunud1jzRscq4baT/XQWK/++goaG76OkHdqItV6XNd0iZtsN8m2xDm9lr4HhGUdjxeep4BAMAkmIrrUnTend1InO/TaTcq+Ag8tRsA9gTPne+3Hz0C1VQpn60d5c+VozSfcvCsfe8SPAMAgKD9GfCxHeRlCPXnQiXIhT8ivVYmuNEc9myGad96OI/bQlCkYW7T6sDt3cpVKa+Zd5/7LM12b/czqwmInxrsPykFzB875tF1ReCdDyX/bv/8lw3Q5mSF2sB5TTIAAADEwVUPQqyWEudQ7TqaQ7iXgVyzVOLoea6awX3b81zTUhC8Kv1Gk97tlfTvgSxPaHVuQsCk8J1Vg2PqmzZ99uszcB56Ise047HT8wwAAAieJxg8ay39NOQwZ61h6BuC51ZWNb8573GuVcHOokVAVLckW5tru6gInJue01yqh4lPLXheSBirIBA8AwCAwb0iCaKhtYTQ5YDndBlZWo2RCVI/1vzbR8e/ZYZpH0pBZZ2lVPcOm2ubNDyv4jBjM0zbzJbcdNZv87nbieeNRBiqDQAAQPAcmVRpv7fibjmqLjQDlJRs00hWClKvS/+WOP69Q8PPfSzl0+L3rjqc1+XAeT1Ga2F9bQAAAILnyGhNYnQdwLldR5ZmY1MOUsvrnH8c4LpUBfRfT/x7lQ+F/zdB8x2XupVUaIACAAD4xZ8kQRQuFPZZHkI7lIM9lkUEaTY2JghNCn/+YgNnE0QvC5+5LgXUXZWHYu9qPndVkU8/l/7e7GtV8/2kFKR/VUzDVYPP/K2w34PoDiu/4vYAAACI15QnDNtKnGs6twniXJ9fCBP8pBL2hGGPNemVSPvZy8vnmhb+zQSy5dnVHxvmheJ+ijNnHzsei4tgWWPyq1VA+TuRMCYJY8IwAAAQFIZtxyFR2GdIw1jvIkmzMUlLaVQcPn8oXZMuQ7eLDT77igC8brK44nDrnfzaO/2l8P+zEw1A5aHhOy53K0y4BwAAUIFh29MMns07oE8Bnd+TPaZ5wGk2NlelYLkcYH4pBFGJDVRvHV3rTzUBbSq/9jB+rci3u8JnrmqOyeckV00C81mHvL1rcA9r+cDtAQAAELcpD9se6zrIRRrrWA8tlTCHbZePK6v5XHEd7n3PczXDrNdnGjWKvdV1w7rL6w4vGhyLy0aZlYx7neeZhDdkm2HbAAAgCPQ8T9NDoMfEcFE/isOwTU/woSY42RUCz7n9zK7hb5je5bx39CDnJ6ebl47hruaYnuw2K5zLXcVnyvtmmarmgb6m8qiXLr3yAAAABM+oxDqrcCmRXxspTP5q2qv2sUXwfC/t3jUuv1e9lOYTlZWD4/tSgP1OdGemHhPNZfHMNTjUlHGpvU4LyjwAABAqJgzDmFEJ/12fJYgWovMuudln1uP7VROa3ZWOm97NZt443p9pxPhHXoalH058xlwvM4nca/vfA5cCAAAQPKNL5ROkXQhBat/gW2ufWUVQf136s3nfmsaUZnnEJXMd7lves7c2iH4vDLcHAAAEzxjYBcc0SeUeWhOg/NFguy18x/Ww2vKSU7cNj+l1RQBddHjePhf+bHqety2OPZFpvoPvMnguX4O2TG+06bW+FBrCAAAAwfMgVqI3/HSKFeQxH9OYVAWph4bfLa+vvHR4XOV9XbcIzMprUc8q9nVfEUCnZ/Zt0mkv0xvq7foe/OJoP7dCDzQAAAhAyBOGJTbIfSNuZ4AtDhE1vRm75+27rYgfAk2Lg+OK7dwGGqH05mjMuHvg9v4tSJ11DGzK6yubQHXl6LoXe8Pb3oPFtajzxoHPpfv7rQ2Y56UA2pzTN/k5uZi5vy4knIa1JpO4vQ08eN5x2wEAAOgxFdsbeVnjdYi1RB/t74fW47RVONcsoPPLFM4vhHVZUwljnWcTWB57pk12Jv+UzzVtsM+V9F/L91HOrw0963gPrRocc5d8kDbY7xDrmKcyrnXWRVjnGQAAOBTCsO28x2hvN9NDlgx0LIn9/fxYMgljkqGDwj7fBZQP30WSZrEqv6d83WEft6U0dTFx2IfC/++kW0/lden+zSo+k/dAt5nF2RzL3cTyicuyjmHWAABgdIYctp2/O/lRwpwF1/Q+mxl6TU+0GR76WYYb5vygFFAlAQSZiehMzPTA7V0bZO467uOT/Doqozj0/1D6jUOD6/7VwTHdya+NbU9nGgBu5efrIHP5+QpDPnw7f4Xj/kRQ3VaTtNkFkEdcjrhhgi8AAABHQfNKfh1GGsN2tMc9RKCfKp3TOoD8sFY6tzSAc3N53VYUHVC2GmF+Zdg2AABwxvewbdPTbN5LvJL41lyd2eN+FLezDTexU9pvJsO+3z0XvXevd9zeAAAAAGILnk2QZN4hvokwaK4Kom/E71I2JsDUGgY5ZO+z1m/fcWsDAAAAiC14Xsk410zNGwRWir+RystwwbXoNTrkM5z7pjmr+XdubWBQB5IAAACgfXD5YwKb68aBRPTeBQ5h6apM+VySQO6BVHjnGfFYybjmHBDhnWcAAOCQVs/zwlY25hNJx7k9376zRueTqe3F/zrMa0+/mYnuUHEzS/KBWxsAAABA6MGzCf42Ev+7zV0C34107yFc2KB5yMnU8qW5tNyI/jvWX7itAQAAAITO91DjULc2AWLeaz3mYei+hvAfA2u0SYVh24jHShi2zbBtAABQy2XPs69hvzHIGgTQM/uZfUAVzXKwa44v6bGfpHCOPobwm17nJ7IfAAAAgFBNZWKwLj24Vcw60ceIzmNjGwSa9OrO7Gc3no8xtF5nEXqeEZeV0PNMzzMAAKj1p4N9mJ7FOUlZaW7T57IQTPXtzR3Cwm7m2PMJuR5Kn7mw5zVUXqDXGQAAAECwwTNDtc/L0yeR8IZnd20QmEv/mcVdMkHzZ7IaAAAAgBCD5xWBc+sAGjo+Cb3OAAAAABR1nTDM9DpekXwIwO55uyUZAAAAAIQWPOfv8QJDM73NlyQDAAAAAG1dhm2bwDmkWY1NAHVv///wvP37vP0tPyflmkt4szDDjUt7zQEAAAAgqOB5JcPPrG0C5W/yMlz3Xpq96zqzx50+b++E2cHHwEwQdkcyAAAAAAiNCTiHWmf4UV7WRnbVgzyz+3sU1qKOcYtlzdVUWOcZ8VgJ6zyzzjMAAKjV5p3nId5z3j1vb5+31/LS0+hqRuV8aaPXdv+7kVzPwwTyrBlt8J5bFwAAAECIwbPppfU51Plgg1ofge2u8FuxBp93tiHgH/n5/vdYA2dznViWCgAAAEBwwbMZ4uxzWaprGwjuPKfFzv7udUTX72CDyff2/5/sn8cYQBM4AwAAAAg6eHb5rvEpJigyPaergdNkZY8j5CDNHNsnqW5kyAPo3Yjy6Y7AGQAAAEDIwbMJmj96OI57GwiG0mMa2vEU5e9qfz4TXL8985lYfCZwBgAAABB68Oyj1/ku0OAoD0BDWQ5pJy894p9apJX57PtIA88ne+yfuE0BAAAAhBw8++h1vgs8uMsDuCED6IM9hq7vMt/ZoHsXUb7MGwpYxxkAAABA8MHzQnR7nU0geBlJOl2K/yHcJnDPJ0/rG0QebPB9KeG/y30pcc98DgAAAGBiwbNmr3M+JDqW4cS+j/fWBs0rpf1eB5b2xYaCW25LAAAAALEEz3PRXdc5xgmg8gBa0070e4ifbFAeQhBdDJpXwqRgAAAAACILnj8o/qYJlmJdh/hedNeBvhd/7yYXg2jfw9LzIfsEzQAAAACi9vi8/VDYHkmfoNMnkZcZ1jcK57ax+04mdB+lDtNvRbEEZSuH+TUN5Jxcnc+W7AEAAP6sCaC0ApzLkaTbpVJlKk/7w0DnZX73s/xcH9pUgM3w/YvCsSUN9pFvD+K3Nx0AAAAAvAXPC6Xf2o0oiMrPJVXY96IQvIZynsBYJHYzjUJmNYG/pbpB6PC8/SsvrxTc243XC4B+Zvbey+/Dv6R6fhVzrz0UnkPcfwCAYIPnN0q/dT2ytLtWCp7fBBQ8A2MIlhf2vkql3/J7+SiKb0KjEtA0WC7ef0mL7+YN+Vf2v4fS/UcwDQDw7o+KvzuK+/WdzUPv9QjT71HcD3E3FYL/I2uOgqksuhrebxprVh4quksP6fJZueJrziOTl4kPtVYNMGWaWX/9i7R7zSIVd41ut9LtFY+6fPTG8bH96zC9u57rD0e/b4K1tx7ujaXC87fM5FvtCSLN/fdO9EayPdnz+CrtGrISe2yu8sROAACTlojORFjLkabXUim9ErLiaILnWCYMMxX2vVJ+Lm6Zcvm1lpcGwB8et3WLe3Ylw0/K9SPCbehz9TFh2NpTXtUsQ1YD3H/bFvkjpjIZABCBhdLDbTbS9JoppdeCrEjw7LGiFnvgPPMUeDQJTM6VdQTPBM9jDJyHCJqrrtF8JGUyACBQ5XWeNYY4jnmij3wyIdfmZE14bADaeshzZob6W4X9mtEfj6Lbo91UZo9lSbZCy8BZO//eis5qF6nN81cyfCO5ORbTCHgj422wBwAEFjxfKPzGt5Gnocb5XZA1QeB8UmKPPbSK8swe05YKPEYcOBfzeRJYmi5tEE0jNABAPXjWqOztRp6GGudHpRsEzvVSWzlOA05fc2yPgR8jCJy7mNuyI+QRFoktIxgFAgBQDZ61hm2PGcO2QeD8uyelwDmTeHp183TOyHIYIHD+pBA4p+Kn0c2VG9F91xsAMPHg2XWF9EnGvxajxjnS84zYA+e3CoHzOtKKcKzHjXgDZxM0f3a8z0zifB0h1uMGAEQQPLt2P5F0vCcrgcD5l8DZ9T3hI+DQrsATQMNX4HxL/v1FSgANAHDhT5IAIHAmcPYWQD+RFQmcCZwHMRcasAAAPWn3PB8mko5UiEHgrBM4r2Rc7wzT80XgHFPgnI4s4OT+AwA4C54Thf3/O5F0fCArgcDZeeBsgo0rLiEInAcJnE2ZseHyAQBQHTwfFPb/90TS8W+yEgicnVfcb7iEIHAeJHCe2WOnpxYAgJrgWUMykXRMyEogcKbiDngMnLWWg8uPnSUTAQAoYcIwgMC5i3sbOGu8739FxR0EzmcDZ42GK7HHveASAgDgP3ieSgWYij4InN1In7el5zQ7PG87eZmjYVfzmcRub2za0iuOMQbOJl/7fl3iyd53D/acnmqOy9x3F7aM4P4DAATh+Lz9cLyN/SE3U0izI1lxFFKHeWLVMC/uFfJjcdsr39OPysdfvMduejQyLGyQ9GPALe147D8i3IY+122LwFk732o2jG08XtO1dO/hzudEOA6YJ1c84gAA24AqPVMMkNpW1EDwPKbAeeUpaF45PI+Zp+MmeA4/eI49cE7FX9CcOLz/lgMF0QTPAACVVuexP2A0Ks4sD0Lw3OY+GkPgPPNQAd4onkOi1Pjos2FyJeNrNPUVPMceOIuH/LtXPId8uDnBMwBAVXm2bY31it+NPA01zo91o9Gm0hjzO865pXJw/ul5e694DgebRtdkycmJ+R3nXKrc4HGrfA5PHu5xAAB+Y94/0mihHet7zzOl9GKm03FIRbeXYww9zvl5aPU6Hwe4nzKh5zkN5B7U7nkeQ4+ziG6vs+8JAOfiZxj3ikccAExPuedZq1U4G2n6aZ3XPVkTDQJO7R7nO9Hvcc7vI40APe+xu/N8bW7lZf1djJt2j7N5Drz28DyYKzZ2mPvgs+fr4mOkDAAA/6PRYvs40rTSmBmYmbbHIxWdXg4fPc7ryO+jEEZwZELP89C0ep61e5x9jPjQPpebga+9dg/0ikccAEzPq4q/2yn8TiLjm3U7FXczhmqnP8bDR4/zrfjrOZ0r3Ufm3eO7ga+VScfPZNnR8dHj7Kvn1JQnGo1M5t77NPB1uhdGgAAAPATP35V+62pkaad1Pt/JlphI4Gx8UNjnTsLpFfokvIZB4Bxm4Cw2cHbdw/0UUNBqgngasAAAqhKJZ5jhUFLFNEoCO8+lrTCaoK3J8NpH+9m1/W464XvJZT4xQyDHNFQ753rI9jGwe0hsYwfDtofhctj2mIZq5zSWpwxtwkutCQlXVBcBAFoV2rG9+zzW9ElswKtRodrYfScTuo80G1nGEDhrBJWhVmg1Ai+CZ3/Bs/Y2ROAsCkHlNtD7LyN4BgBouhEm2fBRwQxhgpWZrVho92qWK4qZjHcJs9iC5/VA6bMU973OoeaphOCZ4DmwwDmVaY0uc93oTfAMAPgfrWGG+TYnXU4+kH1UpGb2t3ysh3kq2PF1vgTP4c2Iu5FpVWZd9z4TPMcfPK8HLP9WMo1e51xG8AwA0KTZExlyD9GpYNNXoHkUvUlpQgiapxJEhx48ZwOnj+s8GHr+cd34RvAcd/C8HjhtXDdeLQK//1w/wwmeAQC/yGScQ9W6PnR9DmsuplHq+JqGFDT7bDQgeA4rcE4cn88mkjzhcugowXO8wfN6ZHnxGMn953L0B8EzAEzQqxP/ZpZ40FwuYx5IBaLpA3eIoebmN/NZXpOegUq+n5AbLGbyc2bvhNtTjVlG5jaA4Nmlb5Gk/R3Zb/JuZfilnGaO78FY8vU3sh8AQNNK9FvgNwEHdDPRmXna59DmhYTd23zqfBeR3z+p0OPsq2yZTTBPpAFfkzSQ9KbH2U/ZFFNZTc8zAEA1ePQReIU4hHuoodpNlrNqWlG5kfiC5pAmtBpb8JwFlDY3jsuPmBA8TzN4Dmmk1WKijVfGluAZANDVqzP/boZtf/FwHHMbFIYyC3dox1OUyEtv+PbE8c3svy9HkEeX9lxm3K69mHs5pKGVLu+t+8iuxY7sOElfR3r/HUT3FS/X7smKAACt4Nn47OnBmPf0rgZOk5XEMZlZao+z/B5zHjinI8qnKQG0k/trO9Jz+zey4z2QHSfJNHomIzyv2PLzv2RFAIBm8GwC52uPx3QlL72+voO/1P7uVWTXMLPHvSoESPMR5tU5AbSTNAxl6KjL6xhbTxKV92nK59AIoQz72+G+vkd2Heh5BgCoBs/GZ88PnMQGSj56UNPCbyURV8pM0H8caeBMAO1OJmG8++wynz5Fdg2eyIaTZfJ9CPM4JFwKAAD0gmdjiKU18sDW9KwuHQZNM7u/RxnfEOcpVD43JEMvQy29hhf0fE1bJuOYjyJWO5IAAOAjeDYVvuuBjjORl9Z607OavxedtgimZ/bzK/v9o91fQhaIUipxz8IdgjH14B+4nIjMjYyn0ZZgFAAwGX+2/LwJPt/JsL1Wc7vl7yY/yc+eHFOJNu8TXhQCg7kwzHeMTM+NedfujqToJH8//h+CZ2AQG3v/kX8BABhp8GxcSli9VnmvMqbHDD++p/LZWT6B2OUIzoOh0IhNPoHYW4n7PXgapwEAk/Gqw3fuR1DZxngqn2uSoZdM4n//kso7YhXKBGJ9zwEAAILnE8xQ2WuSDwFIJYzZo2M2pvcvY5CQBCgw5RcTiHH/AQBGHDwbq+ftliRsxKST6a1niRq94I/ex342niuVO4f7iu3aU3lHVRmWevw9l685/MX9BwCYij97fj8fvp2RlGcDZ8P02JsehquIzyd/x/ih9PcXtlIyxBC+fOmxFdmtVxrG+v7lXOKaOO4vshsq+JxA7D+O77/YyjoAAAZlln/6wfbbtq9Jr8RWlGI5j41tIGlS6ZjZz/o+v2OAlaI0wjzr6x3yTYTH7MrW0Xmnjo9r5fCapIGkdYzPDB/lmMtr/RjZ/efq3FdU/QBgel452o9pLb8lOX9xK/XLAB2et/fy0st3CPwcXttjNf/fpEfyyX72vf2ur3yR9z6P3b1NWy2Zp3R8cLiv2Hq+mGApXk+iOzojnwFf287hvhKJqzf3DdkYABAK89Cnx7l95ccEK0cJq/fDZQV/Ln5GJ4TW+5yKXq/USjktU+W0WTo+3lgq7/OAr9FK6Hk+V77Mle5t372ac8fHu4ionnIUep4BAAHRrtSHvnV9oJrK/00Ax6+5bIqP88tGGjxXDefUHBpvKphJRA0LsVTeXTYaEDz7C56PFQ2KS+WybBFJ2mg/N0JtNCB4BgA4s5CwelJ9vXProrJjApbtQOfgI/DMZJj3zGMPnlc1DS57ifP9y5nE+a52Xy4bPAie/QWIWw/Xs0nA7pLLsiOW955vhOAZABAoX0N1xzjMOW+AeBxZ4OwrgE4mEjzn95lmQ5VmUOoyf4c4YVxVw1jIQ+sJntsHzzE3YLl+zSqGd/kfheAZANDDK8V9m4mNzIRZ1yNPw2t7nveO92uW3nlt96+9dNBn8Tvh2639TS2LCd3DJt99Um7o0JpAbOdwX7MIrnsmGBtTNl9KnBOIPTje38fAr1UqrPEMAIjEGHuhNXqbTwUGjzK+Yc5aeWITUGXNVy+H9vvkqVIw6fIYQx86ehR6nn3T7nnOLSTMuTTOPZfHOuqnyjaCawIAwC9Cm1W66/DQIZZE0jqfIYfazRXPa2rBs0blUHsCsUTifv2gbdkXeoMGwXP34NlHA5bGyArXjbKhThyWShwNGgAA/GZmHzqxBdFHe9xDvFeZSnzvszaltbxZCJV338HzTPm+0nj/0vXog8dAy7yjEDyPPXj20YA1j6D8TQK8BzWuC8EzAEzQqwF+88k+dHy9z+vieK/t8a4GOl6t3uEQ3ke/jizNQs+rb5XzoesGl53j/SUBVmrXEs861OjnveIzYqaQl74p5feQmFEfKVkTADAWpiKQSXjvRO/tcYVQ6dXoHdgElAc0lnsJoQKXyjC9HNrrz7oMThMZ78gDQ/NdWNfnuBJ6nvv2POeNTJr3n+uyW2NUxDKQ66+5GsFKAAAI4EFn3pnyuURTecjnjYTXa6kx5CwL6PwyhfPbBnBeQwXPWg0uWu9fajSchbB0lfYyYgTPYQbPWmWaVuB2I+NswNJeRmzV89gWdh8bm7829s9TWi0CAOBQIi+t1xvFCujR7n8pYc8SqtGYENIw0plSQ8iUg2ftiqPL9y+1Ao39gPlcc4Z8gufwg+eYGrASiecd7Ta2El4DRmLzxbFB2vG6BwAgiErQylY6kgmeewjLU9XRCPSmHDznFbVYJhA7yngC6ET8vIZC8Bx28BxTA9ZWxhNAm3TfeLj/2pbJWaGce7TfTwvl08z+uTj67ij0RAMABq4ETfncQ3zfOadR2Zl68Cyiv/6sq7y0Et0g31cFXnuoNsFzPMGzjwasR0eNQ6noBvm+AkBfDVdty+SskBZZw+8Ul/bMBAAAgufBgudVgOeoETwRPOsHpq7yk/YyW20qraGmM8FzfMGzdmDqcn6HbQTlxLmGQp9LYDY9n2Lg3LYRb04ADQAgeG4fVBA8Ezz3vWbaFWMXPUvas4TngUaicJ2HmOSQ4DmO4NlHw8pNYOXVqZ7yVOH+2w5w/zUpkxMb/FYFzqvCtjwRWM8L++AdaAAAwTPBs1rlcuiKRkjBs/YEVq7ebfQVhG56Bvz5EntDrQxA8BxX8Cyi/x5u5uAY157y7tbB8S4GCprblMl5ei4b5s1tzXMrb1gMbQ1tAADB86jPnZ7n6QbPIvrv47qYnCsVvxXgR1shzc4EfHP5ubTMkBV2gud4g+cYGrC0X584teJFeqL8SOy/r0R3BQ6XZfJMTq/8UMxXswYB8mMgjcIAAILnyQXPTBg2zeBZRH/9WRd560bCCE5D3wie4wqefTRguZhAbMG95aRMztNx2SB4zu1PPLvy4JrZtwFgQK9IgklKOKbJurWbloWDQP/6eTtwqTBC98/bJ+VytG8D1p3d0L+hJL/mbTydyDvF/QIACJ5Rw3UgYR6+IQ39milUCAi+6l12qNC1cSX9ekdM5fE9lwkjdfu8fVbcfyr9JxC7pAzt7Y39767hMzCfNKyu4WJX2i8AgOAZHgPBkIZ+LSJJszF5K/U9HC6spV+DyL2twANj9El0G7BMIJb1+H7egPXEpVKVys93v29sgPyJZAEAgmeEFwi+C+j83kWSZmOi3btrelI20m+Ew63o9tABQ9JuwDLBWN8GLAI5/XI4/+9bD3kCAEDwPAkPCvs0vb1JAOeWiE7P8wPZ5qydhP/+5SfRfUcbGDJwequ4f1cNWIwA6abJO8p5A4W5Rldn9tf1HWoAAMHzZB/Crl0FcG5XkaXZ2JieXc3JgVJx8/7lLfcyRlq2h96ANaYA2uf999AgeC6WwaasXJ0pS4v7BQDgpCkvVeXy/MvbkDN3zhXPKwSpxLE2t+n12Ivusi6Zg+NcS9xL22QS9nJQIR/b0OXmVvk4tfP2jYNjzCK//9aey+TEfm5/Im9uK8rgupFY+b+zzjMADIie53ho9Q6uBzyndWRpNVZm+OilhP3+pdhjvI40ff8Rhp+jXugTiInNv7FOInYp/nvPD/ZZNJfzryYVy+CqyRYX9u9uhXeiAYDgGY18V9rvXNz0SgwRTPlOqzHTnt3axfuXxiqyCrxJ19fCcG00D5609J0BX2ww+Dai/GwC2CEbrq4LaZ+U/m1XSsd8CL/574fC3yfys6H5mlsFANDU1IdtJxL+sNqmMuVzSQK5ZqnEMWy73KiheW22Du+HrYQ9THRVE/wzbDu+58bW0/EulPPkUdwM+515KCv6blWNdUOUyfl9te/wbJrLz+HaS6qBAIBzleOlfQBqPFSXAQVZTcXwXurQgfM+oOsVY/AsHoJSlyMdljYgCKnSvpf6Hj6CZ4Jnn9dBu4w01/kxsPvvUeqHSQ9VJq8LjRdNV5fICmXbWgAAqDCzDwztILFckcgkjkk4Mg/poTmE20dPRRbQ9Yo1eJ55qBBnjo83hMnEjg3Oi+CZ4DmEBqy1Qt45BnD/rc48y4csk5elAH9pj2dWKMdSu99i+UuPMwCgsvI79MO3yYM3hHTykUanes66mHtqEDkGdv1iDZ7za6Z9rVy/857YoOAYcNlB8EzwPMYGrOJz/HGA+6/qneIQy+SkRUNf03MCAHj0RwDBoGlV/RhQ0GMmbPkiL2svhjgpkXlg+1qf+VZeJig59AhmrsRfb/D1AEHmufN3de47u/m0EN2lzA6iM5FPPoLlg/Lxm+vxteU5pA4Dy9se92Zsx9anvAw5r55rwFpEkj5l5v57p3z8B/usvm3xrA6lTM57mc01vrB/Nudg1nC+t/tlVm0AwG8P19DeVWw7BHOoBgff6baR5kPb88BlM8D1Yv1LVFWW87kTXNw3W4lzvgRgqOeVeR6YXlQXPdJ7G/DPSVoAwBCG6HlO7IM0jSSNdvKyhMghoGMylYergX773qbFQ+nvL+y1HapSE1qvM8INppNC+ZP3+lTJe4IONt+z3BTQP5ie2838/99yuiHqu70P895YAAAmxQzhCrm3+VSv5iKgdJxFmo70OgMAAADAGaGvCTn0TNRtZQTNQc6wDQAAAACdmB5B7WU3fG5bCaeXc0zpGsssuAAAAACgEjj7XLPZ59rQIQTQiUx7+PZRmLgJAAAAAIEzAXQDiwkHzwtuMwAAAAAEzgTQTd3I9ALnG24zAAAAALGb0ru4W9Kc95wBAAAAoC16QYdBbz8AAAAARIL3bwmgCZwBAAAA4IREmPk5IYAmcAYAAACAU1hzOJx3cVlbGwAAAAAClBE4/2/LArouY3j/nFm1AQAAAIyC6RGc8nDtquHbIfWSLiK9PkdhHWcAAADASAsbBvKng30sBwwW75+3w/P2UPr7C3l5/3g+UGOCSZNVINf4zqbTOqKbbfe8Xdpri2kp3ze35AOvD+TcwaY9xieTX+fn2NkNAKgXhPl8/ijVHUqXPKvjM0Sv88Y+/GcNjy+z35ly73Ox0hRyL/RRwhr2Dv/KeSIlSbxVTlhLfRrK82GsSBIA1AuCdO71S8rvAbzq+X2fvc6mZeX18/be/v9Tg+882c++t9/11TqT9z6HJk/D64bp58uTPSaf1yg2BJEAAADTkAUaS6BngOijF9MsUeRy+PVc/CzlFGrvc/H6rWTYnuijPQZm0j5fgK4ncq70PA9jJfQ8TwU9zwCoF4SvSf2c8jvCCn3MMy37mIk6i6QRJBO/a0PvpfnQe4g82nRLeEiC4BkEzwAInkdtIdWvrRbrgXMZZm4n9KAdbPkIPLUbAPaRXVNzUy5F5x3xjd13wq3TSjqxSi7BM8EzCJ4BYMr1gvIzOfTRrGgYZI2lx1Y7gI45WExtwLu2Fa7HBuf7aD+7tt8l+HFX0T3ykATBMwieARA8j1q5E2tNNojfUuIcql1Hcwg3L/ujq0TifBXA10NyZh8oplHhkSDgt2D40abNWs63WBM8EzwDsTNDXfNRkSb4YEgrwTPlNIJtERnDMGetYegbsgs6Wkv8rwJoPiS3wuQZTQLhJsEwwTPBMxCzVOKbuBUEz5TTEeq6VNVC6XguB0wLrd9ekM3Qwawm78yFoczFylLZG5KlMg3IMwCm9jyYCb3PABz701EB5cLt83Y/YFrc22PIlAr1HdkNLZxaQ/0D+ak2bYbuZSj32H4aoFw7lTZP3Fr/dVOqVH8V1piP0Vx+f9XrLckySX8F+kwAzxeeLwTPaq141wGkx7VS8Dwn2EFLH078W2bz6mHC6fNk76m09PffBj6uNICK27eKcnpH4PxbmVy8Vt9JkijNhFEV+FnuLWueEwDPFzjTZdj2hcJx3AUSCBzssbh2QVZDCyY4Thp8Zurey8/W3CfboLAiWf6bBteFYPnWphUAjNXOlnOHwp/fCo2GAAIInhOF4/gWUJpoHEtCVkMLH0t/vpPfh/x8JJn+WykycxX88bz9H4HzbwH0/9m0uaQCCWACzLPytS33TOB8T5IAGGvwfBdQmmgcC8Ezmkrl9yG3X+TlnZkiM1wxI7kAAACA6QTPpmUwpF6RJ3HfWknwjKbK7zof5GX42a4iX9L7DAAAAAQcPLt2CDBdDmQNDCCR33uTixPpfSn9G8tWAQAAABMKnh8CTJcHsgYGUO5JNqMgiq8R3MrvozQ+kGwAAABAeMEz6+UBOqreYf5SESyXe5/Nd5IIzi+1W6hlSBL48eXmordcYNvjSAM5llCvk+/0yX8ziTCdQi6XXZQLvvPDUOXtrGMenEXwjJh7Or40wvv41DM1DfjYpvz8mg2U11z+Xtfnh/fns0nsH463VYCZaqVwnjQ84JRlRZ5Jagr9GO6hxfO2ft4ea+6HrT3n8n1R/lx6pgDclrY2Mvud8m8+2jSdtdxP1b72pePLTuynfC7zwnluKva9OZE+dftqWuZtK/LdjT2fHzXnedPhodj3Gt60SN/ibx0rrnlxPzcdKmOn0ufR3g8uK5LzjtdkO2D5MbO/t6853qzldd/XlC1N8n524pqvKsquNuWC7/zQtbxdlbakw702q0mvc2VUYo/5WJM+XcqTNuXBufJnZtOs6hoeHV6/rteubRnvorw5VVbn6bVVyPNt6gV1ea3LsaWl+0P7+dJmH03zeNM0KD4z5o7zx6LiPsrvoaTlvtKa+tC58jk7UR5vxMMEvATP3TbglPKDc33is+uKQigU6YlKwI+aSsiy40My7Xifzc48QIoPkrnj8mLVsoKQndlf5qiyURc8z+zDtE1Zt27R8ND1GnYJBNMW57BtkZfWLdOnb0U3aZh/i9tN4ZoMFTzPG5YNmwb5p835py3y/OxEBSuvoIWUH3yWt1X5Zl4T/Fblvy5l5tFWvDXKg1Plz6LheTXNr3VBs69r5+rZXldWL1ukV5c83/Vcuzy/toWAbtXiueDi+ZKK+xiqSxqU06FP/jhXHiYO95WX0fPSc2evfC8PEjxvAgxkNgTP8GjhIGjMAjiPVc9yYOYpeG5T8T42KEy1gudzD4qtw8rGqqZys+94PY8NK0cxB89Ng8G2DR/nyopjx9/bF1r0fQfPsw6Va9/B875Bfk8Dyg++y9ttxT7aXNN1iwpweZsrlAennqVd7q02le51j2u37nDttILnWc/6ctM83+Vc+z6/FiMIntMez4t8W/bIH+uOx95lX1X1j3mH828Uk/4ZQIU7kfCEeEwYr/JEYWZJqt2Jz5t/O5Ty6ZW8TCg2lPWJB+HBHvO/z9tfUv2eysLTcS4qftsc313h35OKVtvLAdI0q8gXT4Xjv1YOdrYVFcIney3zSRXf2Os5q/n+W3G/9F8I5jXpU5Xf05rKfx5M3LbID3UjUppcl3z4/xBLQ15VpJXJF9+et7/tfTcrVZ4yz2XavCJN7215kMjPJQNDyA8hlLflfdwV8t9Fxb9nNn0WFc+z7/b/q/JCfr7/eHyWVeXT/LzSiuOb2yBj5fDa1d3HmYTzGmDdsPziNb2w55A4KANdlM9Nji9vFLiL+Bl16nlxsPn6oXDf1c2ncmPT6LLjMZTTfWZ/x5SvnzvuK6+z/ceWcVX1tryRaXbi/npXcc4Luzm/9n1aVmN4H1jjve5HAeoL+S6tsZn4b3lucyx562p65nvnWgVPfT+V9r2W5VbyTc0DvdiCea5ClMjPiTeqWm1TaTYxR5Mht3kZdS6P9O15rirDsg7X8vFM+d7lGha16WkqTpBS7pFYl67TuZ6uund20xN5pK6HZt6wnDh2uC6pnO99WXkoI45yujejPFz68UyAlweEy5q8XtxmLfP8o1S/+zgPJD8MVd7W9fbvpX7o5anfq3stpm7ofOq4PKgrf86d16wm7zQZpbTsce0ee1w7F1I539u3OpEGp8qic3m+zbnW5Z9zx3fqnmzS8+zi+dJmH6fqFPOO+SyR+h7eZcf8caz4bnKmfD+V15Y16da1lzuT7q9t9aqsuNgyCUemcH5bAap1fX+5ahjkEK9A1A3HXLb4/t5j8FyugCQnyrmbDg17fSo0p4Y6ivJxnAqem74HVHctbwIJnl18ry6tmr7nvez4fNhKv3fL1wMGz4k0a0ye2X9btth3n/xTFwC1ff/YZ34YsrzddmgcW0q7dx2LeebYohxxHTzvO173RctzanP/nRsiPWTwvG9x36w7pHebc121aAhpGwM0rcu7eDVm2yOfPPYs5+teD5p3yB+Zw7y27HDeTepRVe+EO+/U7fOuRgzvPWu877wW4Hylsm0Bd9OyQqJh5aAyfqpC5zp41p6LwHXwPPN0HCtHDX911zIZSfBcFbzsWx7zjYNKSZcG2fVAwXMqeo3JroPnmw753Wd+GLK83XasGB87pvPaQSNT1+A5aZiOba6Fi/xWdx2GDJ6b9Lg3KYsyB8+zqvuxy/FlEQfPqx6Na0XzluefdmyEarqvJiN4lx3rUUnb++lVh5N6ULgpFxLGe8aJ6Lx7+SBAdQFddtvi+18q/u6j53P4UPrzrsODwrz78n6ga5AGnD/uZJj3U/tcF/Ody4Z5PUZV72O2fRfsuuK6fmhxj3W9X8xxHgJIw7mEu3Tj18DzQ2jlbZP3Au87pvNDRf3Mh9uG90k+z0DRxYnPV81t8qnjfRyS9x2eU58q0viDUvnc5fhuZdg5ZPr4WHGPfu6wn6r8mUq7kTlfHZ5X17KmST3qUPGZxHXwrDX5y1UAmU7rGMY4YQ76mVUUck0f2sUb/q4iSPFVMa2aBORLx30dPD2sypWdTcAB9NCNbl86Bu/3Fdfyw0ju23cV+alt+f5UkT7pmQphuZzo2qhyPUCa7SrKvrbLoPhyH3B+CK283TXMh987pvP9QMHz9x6fPfW+78zRvejrWdk0D+w6fO+p4vxTB9f4XUUe2nXc17XEp6rx4FOP/X3u2cjhMvb51uFZ06Ye1aq8edXxZtGQif4i7+cCgcxT5QGoKuT+leoJIU5tDxUPb18zV6cVD8Q+MxR+8XDMX2sq8luP6TbEg6frg9PVgy6RcaxikHZ4oDfJh/MTz6XZme+20Sfwlp6/Wz4vMwxvPfBzv+/95jM/hFbedi2fQq8PHZTqly6v3ddA0qpPHrprkMf73o9fe+aD2GbbflNxj/bNz3c9rpHLOkxQ5c0rh5nehSHfDdb67Zinuoeeq5q/27bcrhruW8PfjgtKH8HibU1hah4IG/k5YVEIw0qHHLK96/n7VeXeGILncr6oel+16bqwTSqOicJ9MkSjzKea/JTZtNjK8EP7nwLPD6GVt/8Z6bNZo7Lt+tqF0gBx1/N+2zl8Rsykejm8PmJ75bLcSPPNwT6/nfkNX3WYp5ASumvw/F3xwt8MkA43otf6/V2A3ytFmoFEIn6GIs8V8rqPSsF7qR/2ltjy4NwSQGN3r7CP+Qju26ErQy7ujyGeSabi88+JfGXSdi2nl3eaen6ItbyFzrUbemSSxjPiwmEau8jfu8jzmYvj3zVM60kJrefZWHqutGbSbSa6ENIKcfLRM/yRZD5ZkTeTrryV+iFN+bqBWwl3ciNN/3GUzuU0xXQdbABd1wudV8ryZeIANC9fY/z9//CMcGo2st8J1p89HoL3otf6kA+hvvUQOGsOFXfxvgHGJRE/PRb5DPbkv3q75+21TauPNdcltZX5txLYsCEEweWkMlO5Vz/bZ7u5766kehRO/urEJfkBADCG4Nn4ohx4mn2bIRyflPZ/I7o9znkaAUVVvc6vHVSUTENW+b25j4r3j1QEk385alzw7c5uc5tmWUXamvLo/YTy6d8O9jE7k19iU3X8K8+/OQvk2ro4r9tCEF3VeGXuwwfpN3HdmPLDWMrbKRrjtXPx+385fEY81TyDniZ0fzyVnhEunhezhmk9Ka96fNfHGqRLGxC47OHOg4ylh0zMkG2UC6Gs4j46ONh31ZIMmegOrylPppE6eBgP+bAyaZgP5y6XbaGsRe/L3EFen1ekb8yqjj/1/Jsu1khOA0vXO3vPVTX0fSQ/jLa8nZIHhfI1hODZdVn0ENj9+CbyZ5SL2CltmNYEzy2CQx89q3mwu+5ZWCTyc0ISHy+7d10jFeO1rMknrlQtw6S5/JLrin0olfqdrcyHHnRol7uJ42s5hgfuwWHlZNbhHuubD0MOmD5XBNChB3g+88NYy9spOFSkfZ9rF8qyioue+d11A+u94+A3tnukfP7vHOzzTUX9aPJe9fz+Z48BYiYvM+BupHmPWt7Tly9Bk3k61icJd6gZhvOh4oHqsiC6rbgfNScnu6+5T7sKqZfpvuL8konlV5fX8r7mWfFUE+C1CQbP7c+lncM8a55L5xqFnyoq3h9Gco/VlWES0X3nMz+Mubwdu53jwPNDIOfV5ziWDdOpT52kz/0R42izqvXi+zQAVI2W/Mbt3D949tX7XM7Q5gFzlJdeZPPAWZW2jf23o/2s71Y6ep1RVckpF8TXSnmvXPFMlc6pKvi/km4t6gvxMyIkbVEmTP0e/tix8pBW5LlvLQKCpvmgauiidu/2t4r7K+tYHqTyc53j1Yn75mvFvdLlnu56rK7KvyYz18d2z/nMDzGWt/h57cpl002Pa5cGcl5px/r1TH5vvNk5uP+rRt+tOu7rKsJ8VjVJcZ+VC6ryKK+jOjKzQeoPtv9uR2Ead/xuX5FPNCQVeXKjXCnu+3vzE2VIeubBXf78qc8Wr8G2wXGVj6lJJaHN8bv8bt99rWrSf9+yPDOffWxZJpbvjW3D36o65qbHui19r00Fq+r8kp75/bHlPf3Y4brsa67xSrF8WJbSa9Ugbdpc0zZlwLn8s+14jj7zw5Dlbdd7pms6d7m2bY+xT/5pe25DXjtXgXJdnbdtQ8ym5fG3+exjxefbHt+65lyb5t2tgzK26z6q8lmXyZ3b7qfvveRqX13vi1bp/crBDWVaij4Jcp+EHiv8XhCUC2+tERsH+X3oo+bwI/Nb9xW/t25Yuc/XdfXR4DQvXZPlmUp/+ZimOElGfn2SHp89NxLnW8X9kjX4LY2eiyauawLTecOyoCq/X565pz9XBNRNr8vMfnaInsby6ICrM8dxVXHuoT9PfeaHmMpb/H7tDhXXbhv5tcvLl7ThZzfye0P0Tty9wvapJjBqGkStZbgROq7y2a4iEG6Td24qAmViPSVbodd5SzZAhapW1kTx99KK37tR/L261vB8noFZzXfWDe6ptOV5ti2jqoYlLXvc22PreS72Lqxq8m1i07EqDzTpua4bvXRT8Xsze32OPdOrb8/Apiad6t5ZPZXfm/x2Xc/xueuykvMjw1aKZUPVtT1WNFzNatJn1aGsa2rl8PntMz8MVd7S89z/3NIO5auLa6dVr6jK7/OacqA8CqVNz3Xbc113OL6s5vhi63nOy/5jy3x2Lg0WyveSq3156Xl2KZFpD99uO1QL05CImyE0bbUdOtvX4sz98WgLp1ONbJly8HxqyNv+zLE1LYDHEjxvT1RAjoVreRQ3r7BkDfLO/kylzVfF5FQwW5VGPxwdd9Igvc9dl/UAlYTsTGV03yP/hBI8+84PQ5S3BM9uzi1rUJd0fe20gudz9/a2QUDa5Li7fGffIBA+dXx724AbY/B8rr7T9hplygHvpIPnJgX6mLdQlg5AWNYDPOTqHtCZ8m82KazPFc6awXOeLseOxza14FkqKg9Nt7bvSjepVLoKnF09KPMhiF2fGUuFIK1JOg1RSWibj5q+RxlK8DxEfvBd3hI8uzu3zPO10wqe+5xLm3elu57rWvo9v7pe3xCC57xM6jMq+LHFNZpU8PzK8c1lZmGb4hJNn4UZ6FBdcJUbVcz7ajsPv23yo89lq/Jzey3tlrDb2e/cerom5nfeNrwGh+ftvcdjC9Enm16Hhp831928A/qPtH9X9dZ+r+n9kV+fy4HS5sn+/vsW6ZPfm687PiufbBp9avGbB3sNLwfOR03TaWePN7Y5BnznhxjKW5wu69pch1CvXdtyO//Oaw/3+GXLsiR/r7fL8yvUMikv+w8tv5c/x++5XX/3h9J+27ycH7v8QQ9UBc/ziorswdPvz6V60qsnT+duGg7eyK/LZeW//91WGssFc9rieKvSt80D3PzWh9Lx7ez1+d6xkpL2SO/U4bVqu69Efn3t5Knm2ryzaV78fN80q8u7xfyTFI7pvpB/XN0bLu7LqmPO0/5QOGaX93/+e/PCOeXnUpdOGufeRmbzUWKPpXhdv7W8h/uUAU3yfCz5wUd52zXfdE3nLte27TH2fYa4yEP5u6YXLa9duTfureg2zKfye8/rHxXpkdl8WEzb+9Iz4qnDb/d9Np56phTvxycH19dFGav9jCpen3PPDO2y2OW+uuaVoZ+L/zvxrkPLYtq6DE0EAAAAugpl2DYwOX8q7TcfKjDU8hg+3NtzZFkqAAAAVCn3pPUd5UCnDTDyAmOMPdD0OAMAAOCctKIO6XJ/PwY4B3qeMVmvlPef90DvRpRmO6HHGQAAAOcdSn+umo+kjXlFXRvACHVd8iSk7YbLCAAAgBbKyzllPfZVXlZn4+H4U6HnGRjEQrqvbTfkdhTWcQYAAEB75TXAHx0GsZmH4yd4BgaUSL9Fu31vW/l1qnoAAACgqUVF/XLVch8zG3SXO3d8zMFD8AwEIJOwe6GP4qc1DwAAAONWNYHuskXgvHcQgBM8A5Gb2Rs/pCD6aI+J2bQBAADgwlzqRzguTtSTs5p68t7jsRM8AwTRBM0AAADwJpPzrwrm26OcXjI1IXgGkLew+Vwbem9/k6AZAAAAmvpOnrsdoM5K8AxEIJGXd0E2CgHzxu47IZkBAADgkQl+1y3rrqYnOhvoeAmeAeuPiI7V3LjmfZELG/QmDYLfQ2F7eN7un7cdlx0AAAABBNGmJ/qNrdOmhX97svVWs321/x2yDr6NOIYAAAAAAAAAAAAAAAAAAAAAAABx+H8BBgCGtNNPnVmJrQAAAABJRU5ErkJggg==;" vertex="1" parent="1">
          <mxGeometry x="820" y="285" width="235" height="70" as="geometry"/>
        </mxCell>
        <mxCell id="xlfRkcf_6DxHYjirSs4z-22" value="" style="endArrow=classic;html=1;exitX=1;exitY=0.5;exitDx=0;exitDy=0;entryX=0;entryY=0.5;entryDx=0;entryDy=0;dashed=1;" edge="1" parent="1" source="xlfRkcf_6DxHYjirSs4z-17" target="xlfRkcf_6DxHYjirSs4z-21">
          <mxGeometry width="50" height="50" relative="1" as="geometry">
            <mxPoint x="680" y="450" as="sourcePoint"/>
            <mxPoint x="730" y="400" as="targetPoint"/>
          </mxGeometry>
        </mxCell>
        <mxCell id="xlfRkcf_6DxHYjirSs4z-23" value="" style="shape=image;verticalLabelPosition=bottom;labelBackgroundColor=#ffffff;verticalAlign=top;aspect=fixed;imageAspect=0;image=data:image/png,iVBORw0KGgoAAAANSUhEUgAAAdYAAAB4CAYAAABPe9NwAAAAAXNSR0IArs4c6QAAAAlwSFlzAAAN1wAADdcBQiibeAAABCRpVFh0WE1MOmNvbS5hZG9iZS54bXAAAAAAADx4OnhtcG1ldGEgeG1sbnM6eD0iYWRvYmU6bnM6bWV0YS8iIHg6eG1wdGs9IlhNUCBDb3JlIDUuNC4wIj4KICAgPHJkZjpSREYgeG1sbnM6cmRmPSJodHRwOi8vd3d3LnczLm9yZy8xOTk5LzAyLzIyLXJkZi1zeW50YXgtbnMjIj4KICAgICAgPHJkZjpEZXNjcmlwdGlvbiByZGY6YWJvdXQ9IiIKICAgICAgICAgICAgeG1sbnM6dGlmZj0iaHR0cDovL25zLmFkb2JlLmNvbS90aWZmLzEuMC8iCiAgICAgICAgICAgIHhtbG5zOmV4aWY9Imh0dHA6Ly9ucy5hZG9iZS5jb20vZXhpZi8xLjAvIgogICAgICAgICAgICB4bWxuczpkYz0iaHR0cDovL3B1cmwub3JnL2RjL2VsZW1lbnRzLzEuMS8iCiAgICAgICAgICAgIHhtbG5zOnhtcD0iaHR0cDovL25zLmFkb2JlLmNvbS94YXAvMS4wLyI+CiAgICAgICAgIDx0aWZmOlJlc29sdXRpb25Vbml0PjI8L3RpZmY6UmVzb2x1dGlvblVuaXQ+CiAgICAgICAgIDx0aWZmOkNvbXByZXNzaW9uPjU8L3RpZmY6Q29tcHJlc3Npb24+CiAgICAgICAgIDx0aWZmOlhSZXNvbHV0aW9uPjkwPC90aWZmOlhSZXNvbHV0aW9uPgogICAgICAgICA8dGlmZjpPcmllbnRhdGlvbj4xPC90aWZmOk9yaWVudGF0aW9uPgogICAgICAgICA8dGlmZjpZUmVzb2x1dGlvbj45MDwvdGlmZjpZUmVzb2x1dGlvbj4KICAgICAgICAgPGV4aWY6UGl4ZWxYRGltZW5zaW9uPjQ3MDwvZXhpZjpQaXhlbFhEaW1lbnNpb24+CiAgICAgICAgIDxleGlmOkNvbG9yU3BhY2U+MTwvZXhpZjpDb2xvclNwYWNlPgogICAgICAgICA8ZXhpZjpQaXhlbFlEaW1lbnNpb24+MTIwPC9leGlmOlBpeGVsWURpbWVuc2lvbj4KICAgICAgICAgPGRjOnN1YmplY3Q+CiAgICAgICAgICAgIDxyZGY6QmFnLz4KICAgICAgICAgPC9kYzpzdWJqZWN0PgogICAgICAgICA8eG1wOk1vZGlmeURhdGU+MjAxNS0xMC0yOFQwOToxMDoyMTwveG1wOk1vZGlmeURhdGU+CiAgICAgICAgIDx4bXA6Q3JlYXRvclRvb2w+UGl4ZWxtYXRvciAzLjQ8L3htcDpDcmVhdG9yVG9vbD4KICAgICAgPC9yZGY6RGVzY3JpcHRpb24+CiAgIDwvcmRmOlJERj4KPC94OnhtcG1ldGE+CtqKHZwAAEAASURBVHgB7Z0HYFRF88DvLr0SAknohI6CdASkKB2sIFYQxK5YAbH/Fayfip+9AaLYFRX1QzoiAoICIiJIL9ITehppd//fHLmYy7V3/ZLswua9e2/L7Oy+nZ3ZmVm9TgWFAYUBhYEKjAGTyVQd8E/r9fq8CtwMBXqIYYBxFQFIicQoYj4xmzEmV5dB7zKFSqAwoDCgMBCiGGDyMwBaTeJRJr3iEAUzpMAqwVn85s2bk9evX5+SlJSUO3DgwF3gLzekAA0RYMBXGKAIcY0myr0s4GQhV8TVbgi3+1Q9VBhQGFAYqBgYiATMIkVUXXcWBEIYqdr33ntv/1WrVg04cuRI69zc3JSIiIjcfv36vcT798BjgeuSqlaKkrEli45ccCRcbAwxsQSfgq88Z0SW9yooDCgMKAxUHAwwuSUQYysOxMGBFBzFvP/++4POOeecRVFRUdkGg8EEJKWxe/funwgugwNdxasVXOmJ4cR4YhqxJjGWqKTAFa87FcQKAwoDFgzIJEZMIYo4WAUHGAA/8Q8++OAdtWrV2kuSUmJquQ8PDy8aMWLEw6QTbkwFDzAA7qKJScQacvWgCJVFYUBhQGEg+BhgAhMOoUbwIQldCMBPzAMPPDAmMTHxKFDaEFV5xh7r8RdeeGFQ6Lai4kAGvg1E2Z5QQWFAYUBhoOJhQIiqEI6KB3lgIAY3YdOmTbskLS1tPzXaJaryvGHDhn+vWbOmZWCgUrUoDCgMKAwoDIQkBoRoEGVvS4mBHfTQyZMnm3bo0GEprx0SVXnXrl27WeCxmoNi1GMPMKC0gj1AmsqiMKAwEHQMiLhNTB6MQYckBAGAUCZcffXVY/7888/uzsADf7p69eptI43SBnaGKDffqdWemwhTyRUGFAZCAgNiV3g6JCAJQSA+//zzdkuXLr2qqKhI7C4dhujo6MImTZrsIIEmxwcOC1IvFAYUBhQGFAYqLgbgxkQMrLSBHXQhuEkaOnTo2+VNakhuIxJOTk4+smzZsn4OilKPFQYUBhQGFAaqAgZEzEkUN4Yq2MHAokWLuqGQ5FRhiWxmIpuenr7p1KlTze0Uox55gQG1x+oF8lRWhQGFgaBgQBxCnAhKzSFeKQuO8OHDh/fcv39/mhZQU1JS9ickJBzXklal0Y4BtceqHVcqpcKAwkCQMQDhECcG4qNVKdvY74vktWvXDnC1t2rJWrt27QPcq71qC0J8dFWE1UeIVMUoDCgMBAQD5pNG0GYVUaYK5TDw7LPPtj106FDbco8d/oRbzeSlQ2fyDjOqF04xoAirU/SolwoDCgOhggG4VfHDKmY2ilu10yngJ+qXX37pmZ2drckbFa4MdSxQhGNV+LSDT28eKcLqDfZUXoUBhYFAYkBMR2TOKgxkpRWlLk6qSd66dWtPo9GoyRG8EFa0gqV5ivv3cScrwupjhKriFAYUBvyGAVFakiPiFCGwg+L33nvvnGPHjrWy88ruI8xxirFjVfurdrHj3UNFWL3Dn8qtMKAwEAAMlBEDq8O47eAb/ERzaHkf3BjKoe9aQyFBtKvVQkUrxjSmU4RVI6JUMoUBhYGgYkD2Vk1wq2o/0H43VN+4cWN3tIE1iYGlCHAZDteqzrK1j0+vnirC6hX6VGaFAYWBAGEgmnqU2z0HyP7hhx/q/PPPPw0dvLb7mL3YcPZl43mpmRjbLUg9tMGAIqw2KFEPFAYUBkIJA2XEwGo/0E7HgB8Dtqvtjh8/nmrntcNH+fn5uhLCqhwFOcSSZy8UYfUMbyqXwoDCQOAwIE4hihFdKntL+ziX/dXWBQUFYuOrOcCx6k6fPt2EDCINUMGHGFCE1YfIVEUpDCgM+AUDMvErbtUxahMQA7cuLi52nMLBmx07djTmVZyD1+qxhxhQhNVDxKlsCgMKAwHDgAFuVWkDO0A3+6spGRkZQiDdDrt27WqMU4l0tzOqDE4xoEm2PmLEiERcX3VAlt+IGMsgd0s9mzyizXcMjbWN9evX3zRx4sSgHk5866231gYrQ4jywbrVFnvYPNM8vRitH2TfYvUHH3xwyF66YD4bNWpUDWzWOgJDA2KUO+0uaV8xoqNMtAj/fPfdd+Vg5JALo0ePrkUb27Jyr0v7Ytxpo6Ux0la5Z6zOnT59+k7L80BcGZcR1D8sLCysJlejwAK+C8D7rClTphzRCsONN96YEBERMZT8ieBAypFxnsP1G8o5qbUcX6S7/fbbU6l3CDHC3f4QUSXzTvikSZOib7nllmxwURYkOTpub506db4P9nxSFqhA34MD/ZNPPtkCM5sUT+o+ceJE7ddff30A5fxO/yjlME+QaCePK8KqZ0DfwIB+CMRbJmQ7xTh/RIfp+EhMePrIPnjw4DImkIf4wDc4z+W/t8DSlDa9CVw+0YYrU0xRVFTUYXA2hWeTaWPQV9l33313FMR+PNi8g5gKXGK24FawtI+ryJpy6L854PCRadOm7XKrID8lHjNmTFOI6QPANIRYjb51u40W0CxthbhdzrOAElbqE+Lzf8B/toj1uMp3k4et4VreaSasfGfV+V7/Qxtqk99SzhHKXEY5ASWs1NmQNr1GW6KAieq1B2m/BJweiGmIVUbapgMvKzAxmcOLqmyCE40Y+LycnJwEKwRp/EH/hK1Zs+aSvXv3fkwWOfBcBR9gwGoJWK48PRPo0wzg9xjUzXhn/jDk4/AkUoZ8GQmUdyEfzDxWsueWqy9gP6lfvnBZyXvUFif5ZKFSF25hEtd34KCCqhRw5ZVXRqLQ8CYT7TO0uR5dEOkEdpe4oE3iUi6R8q6hH2ffdtttMi6CGm6++WZx4bYQeG6hjSnettGCH8pxjwr4Dgs0x1i2L4wl49XdGqzGN5mN7hbgi/TefGuW+hnD5ltL31iuPAxKmyxwhcg1YcuWLecgYfEYnD179rR96KGH7gSv7jiX8Li+qpDRIWGF8F3O5PKgDGLLh+4tQqQsGQCUW4cyp0K4g9aR/po4LW1koh+JWPJOb3HmTf6kpKQ7mNhuEu7H131I+86mzDeDuXiAqJ5F+z6mL9NlXAnuJVbwYNUAL8apVTngpPzvQKLJo7oZYzrL2LUHrBe4sVdchXy2atWqZhDG1t4AD+cf/t13392G5Gcc309DoiygVfACA3ZFwSNHjoxj0hzHwA6TgW0JMtAZzJafbl1lYpcoQcqkrDZcr+fnS+aHQf4j7ZL2eROkXZaJXa60914WD58iEj7oTbme5JW9Leq/W/JaYJJ7b/qwbPuEkEHU+iH6voxiv5CyAxnYVzMcOHDgMbjnBmVX68BkFn16CwuTjXeDwVsAKnF+Ld+ajFkWpua5gj62wYaMY/o9qBIhG6AC/AAchT/zzDMdEZVrOtTcGXiIkmPff//9+xELn9uzZ8+Zc+fO3X7++edvjYmJySFfNrFQLWScYdD6ne2I5T2TZROQ2N5CCEuyMI6LlvD8ML8dcrrWxVv96kDelpZJnnt5OYAJ8lWi53IMqyo8+yGwAFcG7fuREtwWL5FXVuSi1NWPmCA/BXd8/PW59uJdwAkPdbaHyDQq14d5/F5MPAmc7q6QpM97kq3umeaaibQenA0ORvvQghQFpYFC7C1BmkTbdhDXA2Mev91to6UoIc57Sn+oG59hoKSPTtA/C4kFTvrIwJZKZF5e3umyfWwBRMYgeTe3atXKOHPmTMvjqnaNXLFiRUuIoifzsQ2usGmNWL16dd8//vij58cff3yqbt26OzkIfVeTJk02NWjQYPPXX3+9a9CgQftjY2OzyJwP/qvy3rYN/so+sEtYIQjNmVhiLANauAAG8ko08C70lAii0HMeHTGfGC8fBZOfwFF/586d1bgeLQtUoO+BSdq3mfaNoH1uE1YLvHCnk8HVeAvepFza2Yn3ASes1NuUlb4BwmcGr2SF/y0avSOAyyPRHHuq14GnGRRo/pClHwmNZC+XyS2gHxntako7apTAYJakcL8dePoiIfhHAFMh9DAg3wTfyG64rOsZM3mOIKQvhRuVxeoxR2mq+vPt27cnb9q0qb2v8YC0JpKFa02J69atOxdGS8ci5zRHzB176qmn9nDd3KJFi+0vvfTSn0OHDt3QqFEj4Wplsa6O8yvpDLuElXeiIl/aX/IxMFHv8ZSoSkFM7HsoI4eyxDelRTwZx+onJMQ5wKVndSbiP48JKzhbVxZvJfdi2hOMIAsWq0ATdxL/7Virt65/kHcrbZKVaoy0TSL3cSkpKaKFG1DCSt2iqFQKtCz+WNCsq4xElXa5JdFh0VHEROhxP5ci1Y83cXFxruCLoXqZsFWwgwHGf/hzzz03+MiRI23svPbpI3F9SIzmAHXxR1yH767b8uXLdYiJT7z66qu7zjrrrL316tVbhpnhugEDBmxnHs0EAJEYuepjn8IZSoXZJax0Gjj5d9IqAbjSIwl/m171DZO7zb4cz/6VVXpVutuZbTrQHwNdxorbkPkmg434i/a5RYB8A4bfSxGRaPM777wzH1zbjK/ytZOG9auxHtdIO99w+eRB+Q1sMXBBrZHwZCNVsRk/PAtDspIAt3QShRqbeYeFhp6F+rG33nrrUFAaEBqV1ps3b951+PoN+Ok09J9ONLWJSdjPtofYtmeMXjx79uwTcLE7atWq9Qsc7bJFixZt69u37wHQdZyxGKx5MCi9ZZewOoBEPgCbj8BBWpvHrHhkgrB5HkIPZKKOHTt2rEPOCyfXJgzWbT50aUNWVpbgprfcW4JMbAzCvZbfwb4Ci7TR4z6EEWKdYEPPgt2s0vppn8dtKy0khG5kAiPIxDkT8ZzdcecEXAME1snr4LwqgakFbftVIGBM2QAiYwwRp3m7qAQHVmkgvCKdeIeHQdW6twIqgD/ASfqQIUMeWblyZVd7+AkgKKVVMT4Nhw8fTpb4119/dV62bNmN33///ZGmTZv+hRLUEjw8LUlPT99FhlPMi+6O5dJ6KsqNJsJa8jGczwpTtAQ8mbwEkTJB2IgnQwFR0j46WzxLrUXc4bDTIyMjWR/ky8qrPA5MvIuknGZCTC2B38L6r7b8Dua1pA+HsU/anHZ6Qh2lLbKnabaFDWZbqlrd4F0G1b8Dq3IgwO4YFEIhhJOJ2rxv7qippKts+HDU1NLntDmerY7zunTpcjcKRoPBkUsJRmnmAN5IH6IIJf6LJTb67bffBn/++ec7UTRb0b59+3mZmZnLa9aseZRhXWk9PWkirIIokFCflWR9b/qHVaZlb9WbYvySlzbGIF5q4k3hJcTLXESJstAmJomfvSnTV3lL+rAFfdjC0zKlDIkqKAz4CwPy3UhEG9hfVVS4cvnm9BCqhrglvWP+/PmjUCqqVZEaAbMS/vfffzffvHlz84ULFw6bMWPG+g4dOiwmLOzTp89maEulU1DTRFilE2VCFcJYmUNZwuhNO4XBAF8UZ5z09ttvH/emLF/mrQp96Et8hUpZMp4kuhN8NZbdqdOdtPa2FGR8IvgpXbzZSyN1lDwPSW7NHRxoSQtOEl555ZUeYmMKcbpARK5a8oViGulf9mQTiT2xBumBKPtWONi57JV/fccdd6wB5iOM80qxctdMWEOxo0INJpn85KMXikqY+N57730VajAqeCocBmSjdDfj6TQTk0vqKhMTQRSXGpIvVJUa8mnPbuC02QRGDyMcbrWI9w47inzhxP0OE1SCF7TPgP/eRpiz3PHzzz9f5wsnEKGEFvbW9XiMEi3jm9iPHfrpp5/+jI3sp7RbJHwZFZ3AKsL672iTlZKw5B6tmISoMihyieuYFN6dOnXq5/8Wre4CgYGK/jGWx5FlTDEJXXvq1Kk/yr939Lt69eqyZbOURV5dZwTKUX5/Pi9ZeG5BtNkHAiqOBkoDos7wc845p9qECRO02LVXWvEZc0giB1z0hpMb9+eff3ZHUhhWMhZKcVVZbmir7ujRo8mY7wzZsGFD7yVLlvx4ww03TOf5ctp8oqK2UxNhLfkYfqaxr3DvctVcHhl83Cb2TWpyfQFkJQkyQymUtG8tsF3PJFYgBtHuBvLJ6T05bMwfC7SzBC2wlrTxa9KKb123xUnSh+ST/dlJRI9Pj9ECq8Y0NsbojCuxfax0gb4rcGdMYaJSIOMxVBHBODLirjDvww8/tNLA//LLL2VcnXKnraHaRk/gYvyKZm3DK6644i641FHMJaW+1ENtzvSkfa7yICKuxr7r0PXr1/dE9D2bOGP06NEyL1stwFyVEwrvNRFWGiaw7oILm+Up0PgfTsUZxJOe5vd3PtqYi2HzZm88L/kbRm/Klz4kbsQ+8FtPy8GWsgN7PI9LWcH+0IHhcNl2CGfGs6433XRTdxZxf7HIKYYrcnsRaCkTF2553jhEsZTjiyttc6sdEFW30vsCRjfLkP3RaiwADJY+QktUx4HbyewjZnGerMuFH9r5+tTU1MKXX365Umg58T3FwaH2RCfjUZR8uleAPnSzy7Ull7kFpxc1f/zxx9GY7fRfunTpp0hrpmHmuIt3NotpbaUGPpUmwloCllfKAnCBYqYBbkL2mxfABB9Wq+jAd4n/agT/XvUhE3wocKpmBAHLNji5/USzuFMIPWOrFkRVzufcxcRULGYbnoZDhw7JGbY/eZpf5bOPAVkAEZoS5yLiLKKPzBMCk6eeE1bCOXhbnrnktlFy0uMcYSWLn7sr8mKYcSuLiAbDhw+/FYcP12MrX0cQVFWDfMcS5Ar3Xvejjz66H9OiPpdffvlbPPuOb1zLNkHQ0ef5zBN00BUAVRkD7EEdxib3Mwjr/SWTtflj5MNLJLYleoUeykz2qgCV2RkGYui30j6SSVS2X8SbD881aUCLSQ7pT3DQuXcd7QxKje+AP5KTlhqxVxjPHvHfjL1cLVnJF4uz+95w3RPYS+3JYtAlp66l3MqUhsWXHsLaES3iV37//feeBw8enIxnJ8GxY+22EECAIqwh0AkKBM8wwOT6EpNRTzicLlzNhcgkLdEHIaQ/XB+0L6hFWBZDFiCEUIrtavnnlvcOrkEVDTLOzHuiiK6vZE90BPAnPPLII+N5LpyV0/FDmrpsrYz89ttv74Qo15P2yWLQR2PXAboq7mMkGgl4chq9e/fuFuDtafC0BHyF7DaAoxUSMJ+xnbNc6RJHad3pLYOlPLn6qEx36jen5eMVmwSzpp0FnmDB4jbwGjPQLgnmj9VyhRvwanUfangTX7FMyMNZ1S6RiVmiheOxtNnTK+PDK1xp7CZ7yWy+EcG7vYQuntmU4yK9X16XwG4FS/k+EVen0m/0o9V4LZ+u/G8A9sWc5FG7GR/Rs2bNGjBw4MCP4Dqf27FjRxvhWr/44ouhFJjgqFDyRWG/2aVHjx5vY473pBBVaZcE3jnKpp6DAcaSDu6126OPPjr13nvvvRV8lSp3hRqC7HKsdHQBQGdbOpqr9Lwm8YajBsq+CYjJoizzySgl6bK07Kc4KtPT50zARcBxkmhuP1cZ1JXqJA3aI07bc4jmr5WLnonLKxdigjf6UPBWeroNfZCNUlrQZgSUPXbCMVwGbKMZtyOJ4oA+Dri8nXSDxQ1lg+PSfhP80ia3TEtQMDNBrORbK/2GKUd+O+WiSOPzUDJmTlG3fHM25fPMhBhYlJgs49Qmjb0HZJPFcVC+WeqNffbZZ69CEXAidpgNy8IHoWxFTOTZybLP5Z58NZ544okrcO83buvWrc0t73luuVVXDRjA81QdFiXPoAfRGtw9w/exW0O2gCZxRFi/ZRJexyrSMtjlXM8j3kDG/kNmUlLSMBARIeUyeciHkc8+SaY35XqSl499Ax9yf656gYW20jf6LAZ9IYoQnhQZink+ps9+tkzK4NpAe70yqueggU0cFTWIvguz4I1rTnx8fFBFMtOnTxd1/NeJb9x8883pwFSd9pphdLdjZFxK2xiX293N6216zgM+vX///psYj3EsOAHFKONSlLC2uVM2LuQOV6tW7SpwECVtkXLIX8j1gDvl+CIth3BvZcwMpm67/QF8hvr168ezhyYLCM2EX8Yz8J3ANEdzHl+0h3qjOa7tao5Le4YJ3uZISJSv6s6dO7cBde211CewounaFMf5E9B2vZbvSBZ+KniBAcZVHBKDmy+44IJanEv7sDj796I4lVVhQGFAYaDyYACiE0Z0KDoNpZYKrCziLsYUS4imMB1WkYWBcN9FuOd7kLRmY3iucZ988sllbdq0WSXvy+dRv61x6C4+ZOHYuXPnpSJeB9d2GUXKVEFhQGFAYaDqYIDJMJ4Y8DNFPcEwR5+lt23b9kfyOiWQcE+bfvjhh160q9b9998/gUPARVLkNI967xl+LIsVnPr/hvemnuDc2y0gT4aGyqMwoDCgMBA6GGAiFL+/nihnBbQRwBg/YsSIp7Gftbg9tSKUlgkeoEwtW7b8E5HvOES/7yEGl20Sq7Tqt3/wgUP/NXhtkjNqQ348BXTwqsoUBhQGFAZCDQMyUeNusT+envYBm0MiicJY3oABA2bOmTNn/HnnnfcTOg0O0zorR71zjGNnuJHFTbdu3ZZu27btbNIFNdil7HNTE7pxRstQjlZ2qo3IsIkoNpkWD8zMnRvUVpSpfF5q3CjcC52DusYZw8Yy78restuBgr/x234ZeSstz+clJiaHRRnHok9ajS8ioEoRFhjcvGL4pqedov2rO4Kayo5Co2n9b8fyDk3UOW+/m/WUJp9TKz4lyqQ7p8ioawUCU6k/Dv1Mt8Uv4FdvQFHZqDd6rKnMh1RA/flhOv2uojDTuuLYrF0Xbtd5XF5pI+3c/K+OLjaqMK455xe11xlMdcF3JO0OydNjZGwjETseWRj2Tm+0aco3Z3FqtSbF+uIbGTcy88vkX+ECapWYyxm2Hzuc9d5VZw7P8FsbIKzJffr0efunn34ShTC79aDAd+L222+fzsS+F1OQm/ft29fKbkL10K8YYE7QnX/++d/hzP8u7mUhFJRgd7M3Qm/qHK3TT3BKmQA3mun0lNFsGxkyhJVJ5dq4MP2gAvvjvxTJYSwpThcbDvKglLBGxRoSUZ28hw2fRKcritJSQuCGBssKQGKx3mAMN+iye6Ql/LxYZ/y0SJfz/cDDOp+YJCxMSeiB0uZNmJJdSF3JOKKjKmxaqN/jQF4cEXqcXeY4KYHFnc5QpMsznIr/fWGa7oviYuNXg47kSt96HealJDal3SMofxigYiJhijJ/NICNlbDX5fujABnbeXpTpi76tJywZENYTbqixixGHgkHfi96zx+gay4zgsGXazStatVK94Fuo3MGQHOhDhJypFlnPDz1dkRU8XN8YNy4cdPgWI233nrrOCwg6ssE7yi9g2rUYx9gQHCOz+mL8E2/k3sxxQmKC0S7hBVur7iA2dMVYZWJleAq2ZlUAfoLIguEqLokrAKPXri9f0Mu3wIsSF6+qQIR1n/Bl2leuiQxXGe6uNikvzhMn7BmQZrxoQGHcxaXSebW7ZKUuFoFBt0zBp1pOBNxdKGZmJ1hEYpDZFYuIW8xSCq6g4Du2MvcOy8t7vFBh3M+dauxZRLjcDgqLC1xDFKAhzjcNFWIt2VzTXAQygE8SMg30mlnbq3/8n0beYPQQefaKa911pD5JQ0j+t2vN5NzDMeYDeI81BR7jcdUaOPrr7/+1sKFC5txGsuN+C8WG1ZFVO0hK0DPMJULxxTntvHjx++m/6ZAE04HqOrSakpoY+lvdVOBMVAy2ZgXFcLBhulMncJM+m/npcTfxU+32av5afGti/W6H5Be3AhdiWbBYeaMpZ5QCpZ2yypJFlQM6iYRJv2HC1IS/vOlB0fcza5WrXp4SvwHkTrjfykrFU8b5tVjqLU7lPqgEsOSwikrPSwuM8u2s0mTJus+++yzl9l/7TRlypQxFqJaNo26Dw4GsHONxczpvnfeeed8iGvA6VzAKwwOmu3XykRpNVfCmVj9tp+rYjyVhpRwVvERet2rc1PjxroD+Zzk+LPZx/omXK/vYCGo7uQPZlohsLQ/LNJgejApNeG5iWc4eU0gfVezZkJUlPH9KIPuGjnRtMJsCWhqnUrkLgYgnGfjXYktAOvQqlWrH3FfOPmZZ57pxXUk3q4irVOoX8HEgIjiOR2nEZ7ZnuBc28aBhqVKE1YbZAfVf5ANND55UCK+NLBoeHpRWuzFWgpdVDehRniE6UMIcjNXInUt5QUjjXDssrBALD6ue2rcOC0wkFwfYzj9QqTedJksJvivQhXGAJxOxJo1a9riNcnKgYXYsnKc2YyxY8cO5ai3EXjKsrulVoVRF/Sm03dmGJA2dMXl6X38TgokUIqwBhLbQapLiAwdHWM0GZ4TzWdXYBQV6h6J1Ok7VlSiammffFrSdujlYwtS4tqZb538WZwSP4z9yVsqerudNFG9cg8DsbhabFPiEtKcE0cES/BT+9ndd989EocEVzBhl2xpu1ewSh0YDEjfcfLQNZMmTRoQyL5ShDUw/Rv0WoR7i9TrWodFFl/vDJgFNWM7heuMt4kYtDIEIaxw3tUQDT2x5MxB9nabNSs9KQlln0lsRJuND+0mUg+rGgYiOaasuqXRuCVcClH9lGPLhq9YsaKfhSuyvFdXzzEgoluJ/ggcOVcDcf19J0+ebOCP8u2VWaVFGBgKWZEPo/40u9yVd1410lqTQX8jNpnvXnLAwWlFhrB7MbeKE1FoZQmyqOCbvbCgdvx5uoPZP9trV2xe8VVohJ8drCNt7MGkngUdAwmcsZomUHCA+Y9Tp0797Lbbbrv2t99+6x10yCowANHR0bqEhITjycnJe7lm4M3qMB6qzPbnHI4SjaJYCgdJVIcgpnGtgVJYbH6+d+bpW7Zs6YIp1J0shp6EgJ/yN/qqNGH1N3JDrXyzIg62mJGF8Z04jcyGwMzBcQCHqQyqLNyqBf+yRoBoouSrG8mtbbubNo3Snzo0qhKtJSxNV1fvMGBgQo+Vk1M46m3mLbfcMlwRVc8QKtwoJy5lduzYcW27du2WdurUaTUuCHe2aNFC7OzFHMaiJyii9WjMmyJ//fXXFPwzN4IonsMxe+25djx48GAtiK/bdAuRsAE3kyMwjVoCcZ0DPH793N0G0DO0hmYuS096Cl0oyNFFeCIuOoQYuhop8j4aAsParw23NgQmXFfULdykr2ll3OsAOVIvTiJ0wgUHKwgMErTAKyJhYO21sLquWv/j1mdlRp462MKo03fWOh4QLZvbHcSmm9vt6I/MTLTFJ3t/guNQGOfl2yqNQ7rgkzaWL7vM74Kzzz57PVzq34h/h/zyyy+9hUAoEXAZDGm4TUtLO4DC1yI4xk+HDRu2nizHwKMzG2QLR7mPtOvA92yu1fBm1RhRfDcI5CCIbCe0fWtAMDVAcCYJjjtqYYJzC/vjv/HEr8eVVmnCqrlHyiWUiYaJ6xAixufwcpNP11rm+HIp/fsTOPCqp4vgZNsOgDAcIPA26Dqwl2hjPiC52OXoJkS6RKHOYUFnGqvP5uTqD/F8tBMcFAcBBzRVz8kousHMrue5IopnFgCm+sbImJb4APm1bOOKdfoelBGp5ROVvsdt5A96g24RLmTzgtDusqDbvRfE0ItZ2YXxx84wA3aTuXwoVItFy0YG2VQKDCn6ioKZARvtfzb61+vSIWxUp19zzTXjcGc4UBCmiKrLYVOaADeP2T179vwBTv/toUOHroeY2ngBK03s5KaECAshzAT/azk3+3P65az//e9/l9EvV0Bw6zrJXvpK+g4PWv1RZLqI+48o19W0UZrX3ZsqTViFMLmLMEkvMwznJxwbkJH9BhOOlvnYk2rcyoOP5Mxovf4BVxqtAizHSdt4kcGRgmwut9biTUk4ttNG3dODMrOfdwtIPySeV0/3lq4wfgXAt3T2lUi7o/SGmAKjviG3VoSV/mwlbXK1ryxpWEz9GJGZM6S3NkbZDy12p0jvvFmKa0TGw1Y8d73qTq2VKG3alVdeOWLBggUDKlGb/N4UCJYuPT19w3XXXTf5ySefnMfvDF9VSlkioDokUYjs0qVLv+Dg+ZsRG1+OW2ynJjUCF3u2sV999dVoiPMCyjjgK7jKlxNSq9DywPnzt1DU8hQRC29T+WeOYCC/YUGaLsbR+0A/1xtNXyIaK2AudBqk3YyvSK5WSfG5KgxKPXnvLMiAgXhn40H/B2fpAvVu0D7dMdiI70Us7SqYddUMBpvVLW2u5SqvvBdOHsfvs3tXCKKqpUWa0si4qHKBSbvGtdde+zCuCq/DTlXD6KpyKLLbYPwlF/fu3fsb/CuPhqh+5kuiWr5Cyj51wQUXrMSWeMIjjzwypuQw+fLJSn8LxyqB/dquHEZ/Ob9RvfBPqLKE1RfoPMnGnC/K8UUZxYaIE4g7T7jq0BKA87ha0dCdx/GloNPFWT20A5g5v0l3PDy/KMvO66A8QoS9W4tDfGmb3mS0MvbnGU3Sx7hqtzTMzBEbjfuD0khVacAwwISbyAk1t3/77bej0VA1CKejgmsMoOF7FLH5C4sXL76XU35+B2+s9b0P9EfC8ePHG6LQ1ID7FOkfYqm0lXqOTZgw4UvsVa+76KKLPkLr2KkKMb6Eo+B0r9u+fXsD76GzX0IpcPZfV+6n5YmLOF7Sujxn8aO3kacGEV1R1O1MFGoBTQgv6wEb0Ux8oc5QqIE6macYva6wONzgk4/GApc3V5MbHzD9ZrtKLWd25QwWFi+u1i7Osqt3IY4BJuxouJ+rP/zww7Fon5olUjwLcaiDDx4KSsdGjRr11AsvvPABhO6kryAC99Wuv/76B9auXTuY+6LExMTMOnXqHGjevPmveMX6FS3jPdR3iijT3w7SPMihCftnzpx5L/6CHUoU9+zZ0+Gtt94aQvrXyOvzuaxKE1ZvOl9m11PenHnmTeV28pqKC5MNYYbqrkTZAjJ0ZIudIqrkI1lczTeZ8rQwJbLoKjaY/LbKrZIdEEKNZpINY0IeAFF9gv26GiEEWkiDUrdu3R0PPfTQxLvuuutbiFS2L4HFnWQs+6c90QJuX7Zc7F6v5zShfWK68+abb/4wZsyYFbzPoP6D9ONkuOci3o9nT9UuccU2NoIzW68hz9fE3USfBq8JKw1xpjbtU2A1FqbF+sJcVHkiFAXFYdmjaXmK8pLp0iO+OetUY7ucJoODvI494ghxhuAoyGIg32TMMxSbfneUpio+R7P6kAiEXQbScDj70P/VSZh+yYGsIy7TV44Emr+nit7cVatWtf2///u/J/fv31+XeU1pAGvoUDjHvyGqD8Mlim2oZs4P4idfnKxVZVqSq8xcMiWbI2WZp2fOuj384IMPPvT9999fv3nz5h70TeOsrKxoHHdEEBvNnz+/EZzrFezpLhs8ePAXlDuXvBlcX+FgBD2LpPsgonGUaxMg1m3uv//+C0k71R3YbQqy88ArwnpmEjdevCA1PoSkovqOmIHYaar1I+lVTm+xkvwWRcUYDEUu9X/MPU8VqQtTE15YoPf/mZDWkNv5ZTI1gzgMcTUDmrU8dYYNx2plrdcF5fhfO7CHwiO97i9nCxILiGIrzIDpGlWsm7cgJX4dc6880kKSLUV4daUilOv07I+bjqOuu6s4yrDaFJu1+8LtOqd7Sp5WesY2Wt9hfmr8m6Ei/5YuwOf15EGZp7Z72i57+Zhc63Xv3n0Sk21bec9ve8nUszIYaNmy5QqOZZtw/vnnr3FFmMCn7FbFQxhrsL9Z6/nnn2/Anml9YhQEMkZ8+qL4lAunmZ+amnpi2rRp+7p06bKHPIch2r8T/+SUoVROG+qBlvYl69evP4991zpix4p9ajwuJgfjcL8X5jfzeP86+VZxss3LuDGsjmnO7Sig2Qxh6o1kP3gIIuNvSC+axj4LXhFWEWoz0bRDI9Olg3OfQeyioEI+iPKcqKMsTFRWyA43GQ20yeVEKeWTMTlcbxrvqOxAPhcxphAGLVMBaaZdtTEEFgOBRJCLujgP/BejXp/P4sSlHbCM+XCTqWOYQdfRRbF+eY3dsNk5RTGrpLBi02nDqfjlC1JNM/LDq31zyYEDub6sVMY5Z/qm832PcflR+LJiJ2XJhJVrNH7OxWeElUk/iRNQ7obzMduqOqlevQIDBgODv2PHn5966ikhqqshqjZTDziVIRPPQqUmSmDN2X/tjNek9hzl1hyCWBOCWl2UiGQBU9bJA2XpwsLCjNWrV8/F5WEGe7c7iKsg4ivpo81wr98QZyPm7QDBvPqPP/4YSJn1pRyIaNyiRYuGsX/aETOp1zjS7wM42ck7duxojcesXvY6D89OnV566aWe5P/KXjvs5dHyzCvCKhXIRKPF9lELMBUpjYwkLVxOqLQJB/xip/lzvjGKSSnLK7Bou6kgPyx0tgDgHDWtKhy0+lhKzuakjPiVEJALtMiyRDIg3FywA9NZNPS1H+LpfmHFp8YsTEl4oH9m1nJfwiXE1ZVttC/rc1WWzDdGvea1s6vihDMNR/w79JtvvrmNid5Wsc1lCVUrgZjTwNnPhGBNql279pbyxAh8xrI/nYoSU3e0dPts27atI4SvIVxhUtnD4iGeuqioqHz8BOeGh4fn8xs9B7MCUhiENlaILgcg1MU0pjEY7s+eai6O9P/Bg9P3l1xyyXclXOwqXE225wi/u6jrYrFRld6gzvRXX3316Q0bNrRChPzsAw888Cyes1oCR6oQbiHCloA/4urLli27kt+LiThU8U3wmrD6BgxVij8xIDaecPKHmIjvvezIEa+oqky0FFc9Kto0dkFMwknGqBXX78922C0br0+wcF2LAMrTIBz8/BTTBxipXuANgfa0fk/zlV3csb/eDQ9cc+anJdw/8HDWFE/LrGr5EB22mzFjxli4nWr+bnvZSV24vtjY2DxEn0cwD8mBYOUx4RsgKHFoI9cAniSuXoxq37cGWHP69u377qxZs16iLaXOFWRxQm1JENO2V1xxxaC///67z969e8+WvVCBQohoXFxcNvkPs2e6Fw50T1JS0q709PTdjRs33sd9DgQ2DwJbRFrxzxwveSGQNdhXbQKH2158Bh84cKAFx/g9QJ/djGvCH7GX/QSiuQwTn7sfe+yxpYiJ7+F9C6kTQh47Z86cm7p27VoHW+Rn8AA1E8cQY3hlhVMhsnhjOh8vTufwbqnk9UVQhNUXWAzhMoTqYSKyr7hYd8Ogozl/eAtqCWFNDjfoHmHtV26Yelu6Z/nFXaG3HGSkLufrAmP8PXD2HbRwrZ5B6r9cwlWyLZNAn7w+PyW2aGBm7nT/1VY5SmZSTRs4cOD9uMSTSdXvQSZxCEhRgwYNtrRu3XoFij/LW7VqtYV4CjOSAgiK/tChQ7EQlAbYWJ7Fea/91q1b1xslHNZNvgtlCbyzUsumQ/N3LwTs5cmTJ8/guZmzoz3REL4G99xzzwBgvRji154FQaq0k4WCrlatWvto6zaI52/169df3aNHj22XXnqp7GWKToBYNxZSlqwPHQbKEhqVAOcqHpPaoGDWF8I9COJ6xcqVKwfOnj17Pj6I33v66ae/gJNe//DDD09m/7WrFMi+qg4R8GDqrf7yyy/PxtfzXohzg7LtknRwsikQZXFzKGJtn2ynKMIqmK2kQZZm7MnlFxlMtw3OyF3kq2bKl1CRxOBa2t07U5e9ONX0MGLGWYhWY2UBUdGCiElx7RgZbjC8Mj8tfvfAw9k/VrQ2BApeJtFInApcjRjwEiEE/g4ymTdq1GgbmqvvY5byNXuGwvHl8Nxe5RuAaS7vFyP6/PTPP/9s6Sl8cIE6fPZmIrbdjlKQcIoZIs5FcScFkW1dxK21Uf6pA1EXpws21UDwc/Bo9COO61+76qqrlgPvadIl4O2oJZ6pLvz999+HUcZZcNpUFa6DI83kNKDfOblmEYTu5+HDh++h0JOS78UXX7Qp39UD8snOy/GSuJ+6f6K+aRDKi1FSugLCeQWEth8E9oP//ve/7+Cgfyz7vm+iyIT/dOY/2gT+urLfmgSBzcOcykoULGlEcWr16tUD4Han8nObPPM2KMLqLQZDOL98JgadPjLSqH92fo340wOPqonWWXf1zchZgAbsC3CtE2WOsZ1mnOUOjXdCXNkoTGC6nrwkKalPb2bP0IAstKCA42nz9ddf3w6BMe/L+RM68QSEKPJ7lG5eRpQqzui1cEUxEIq2cFM1PYEN4mlE1LoeO8/5ELc1EPV89iFT0aytz6kw8XCgB3m/o169elmInOPBRxOIS1sUf5rAdZrNU4RQ4sloK9zgB3Cd64AjAqWhduxxXgOxuhQN30bCFXIcXA7c9yo5s7ZPnz7Lb7755g2kNZ9gM2LECE/Ad5gH3AmnuxmCuRNx8ywI5rVz584dRV/ehyJTLxYtL4C3yRD9F1kw1LUUhM1qC9pbIGLpsnu9lvdIClpwck53yt1BHV6vqxVhtWC2kl4ZIXo6ua0hTPfNwtSYm/pn5IlBtAoOMHAyI/vppLT4mhDXu0S87PUX5qAefz4WaUKUXt8+P7LwVup5wZ91VcSymTwTOG3lRojMWf6Gn73FfNFQhSD9lwlbxKAuA/BFoFB1FZ6B/iMatC4zlElAHSKC3X3xxRe/j+OE2WjJpr322mtDUOS5QDhTiEos5csOEQ7L9PlwpCebNGmyF4K4Fi3fGSw0wiBUrTFf6YAWb1MIVhuI0qscn7eaPdIsOPw+aPTWE6IrHHCHDh2W9O/ffzYuIH+hTCGm+ZxmUwYi/9xSjyhPiqelyRDU2eDrfhYHV2JTOwVPTTMh7n/AIdeGGzXrgJBOj6iaz8Jqi7UUOGxdo+F++/FgFtFrz1GKsJaitvLeiCyFjq5m1IdNnZ+WuG/g4VO/Vt7Weteyq9ia+bJm9vhqGfEnMamZAPcXWRHF3sWw3OiV3Tq7WrWpF588KaI0FcCATLDTp0/vBuEYKtyWPwPKSbmc8PImtp6TmdAztNaFWLYByjR3QMBSteaRdGjZnoZDncVh3u9QXzHc8R2bNm26FIJqrxyhMHKguMQ0TI06iciYPdEN55577vpHH330YzjZRES+zeFO28HNDgJfbBFHnoCYLu7cufNiFieL2aMWzeCT9913nzug+iwtdcsh6X/Qr+Nx+r9MvC1NmTLlJiQEohRVTNuslCtJZ7duMflhb7sbrhMbkEA4bq+CIqxeoa/iZBbiigZEdaOp+NXlNWv27+GldnDFabn7kJ6x881+bEFawm/MxJP4SNqVPUze/qfpfj3+zHFGJGxqbIoq7kM9SkrxL7JT0Ci9A1d5mk40+jeb9jsme7OtJ0Tnc4iqaNBqJqpM/LG33377CPYNrVz4uaodTdt/EPkiBf3vT3CP/TFNuTUjI6OZI0JSvjxJhyZuChqyfYgXYMZyFIWjbb169Vr3xhtvfIwC1WkUiMRP7xbEu5vJn0W7hGsMiQAsh2nD+5x2s2H8+PFPw2X3FrGvOwGxewPwdgHl/E15MmV6HLwmrPYZa4/h8TpjICe9UGm7wCFelc54ynGMQtEcjdAbumSH5V9NqmmOU6o3goEBh7O+n5Oc/BNmdpeh0HQpYuGeoLkGr8SCKShBpgoZ4654LUnDmNCjzNSXW48Jq6WdlitlBTUI+4HdvEfgMGEa8PjTB4UbmTz91g4pG/HqJhwPiIP3w1orIp8eZwrdUMS5SZSBtORDJGtEq3gh+6Avsl96Gk7tUbjPy+A2WUd7HAyi3AQhldgNjdmTDRs23MUe6krsSWVPdj/7xrLXGTKEVVoqhB4crkT8fTMazP9BkWkYXLb5dCIt/U27wtFuHkBRnxG9clmqqfMEaHtBrKnRl57DUVz4aAyyPSOwyGTDZHJvuE7fzqvlhr3GlnkmkxvlHzTpjRNRKCtwb11UpiAf3EqbsYmLNOpMFzDbXEWUA8udBDrKpL9+iU73QW9zM5wkVa90Fx47dgo0fAROP5lbK74GimBN9SZTA/Bt17m3P1FmJqYGXS2jSX8LH25jV8T1zDdg6vplPV3MVfvM5g1ugSeTQ6FOt57x8iq3ViI1twryYWLE8oBj9PQQCRFtDhEbUR+CZFMUIlnjZZdd9gkKQ8LZaQpM/GF4CGoHgZyEUpCII10GlIZOXHjhhdNx1vARWrJtcYIwAYWeVlqIiMvC/02gF+cOiJTbY1rTHt+8I3EVuA1R8BKcaixCHPwXSTMhan5xq/kvGNrugEOmv53g4AFgy8WWdYTWRYrUwEKiHU4l0rkNHmEVLokP74/+GTkfClChEPBbfCliu3b+VOmk2ayOdMd/OZw7bWLo6LdMQaM1EqWbYc72BIWrxXFNx6K0uLN0h3O83ksIhT4PBAz0uVF3KDuTuiSuDESdjupYUDN+pTFMN58pxKkLRrHvhblrklwQl4hlh3AYbgURf1PHTrw5ve9WxhBNjHizKcShm48Jj01r4Vb3jx07dr4WYgMssmBJRtx6PmLjByFgnW0KLPdAFKJatGixnH3Nd0eOHLkNpwyjcIJwI16EqpVL6tOfsg+JknkCsQNwdhDOGq58I0T2J4j7QjRx11OhmNYIcQtqAIbd4PYxFjgFKGPdLA75tQCEOLw27ZIxItrbkDfPglccq7lKk/mAbM9q90+uQDGQ+o51dNG6AzotqvP+aWm5UvVG09cIPoaVe2z1U0Y8Jjgc7K3vyq1HhFVGKOp1nsnjrKDxzY9iyEcoud3zTasclxKhz15baIr/G3l0Ow2OMaIoKY2oWSRZruZAfU/lqvXtTybKCLRFu5c1wfBtDbLYPjN3owD0O3ajuxyVDywi7aiGA/j6kyZN6gwX3QdOqTeKNsmWMiSv3JPWXAz3JvznHj/rrLN+GzJkyJecyvI3RK11s2bN3sX+8lwheoEO4DIJJbDuaNN2Z9FyI2L2RXg6WoSW7irsbw8Bs0h7ghaofx/4exrb4SSxeQVHTomr4BvuNgwlpl4A/SnxqKfAe09YPa1Z5fM5BvR6w17RBXUVImQAmXTNXKWz9968x8WAyy02vQplPc5IDa6I8Iyf4J4RBt01GoiMvSZVuGdLM3W556XqrNUdHbcCxtMQ7/h1lXmTgHZrHzgXvy8UatSoIbbDpbtRTO6yuInDi1ItTnZpO3r06HNREGqPx6fmorGLCUyYhYBartIr7GeexhH9X+yhboBQbYP72orjhUOY0bSES3xclIzYCw34loTAVjaAUx12oLWJIzHruQqObzfmOb9gYzoPpxJLIP4i5QlKgFj+w97pwziHSGHv+QJnQFhwjxlWO/Zp65BWEVZnCKsq79j3wwOp6yDLNpPJmOw6pW2KEsJ6Iq4w7I2eIWLGsTA1MTtcZ7rGK0/8tk0N2SdnCzMjOg1O19//go+GievV1r/JK+Ud53I2Zf/RLU1bdxFhmZjh2Lp+8MEHF7IfuQtFqQYQ0kbU3QlC2gbiU1/82JY19RFOSaIlv9SLstBmXPWJTeZWxKxNMQOpP27cuGuwLW2Bg4dmEFSzH153YfR3erjCKPaIW0jEheAVHFL+Cu16lvad9nfdjspnz3vX448//hTa0g2wZW1cHtfl84Hj+rhL7Azcf5HWo29HcazlsVqhfxubGZhvXSm1mLlavcFjrUHmc31eRKGslEPCPtKkN3nclorY3SlJSQlF+qJUV/1c0rbiCIPpZEVsp69gZoIMxyVfN04/ES7E7wFOsgWKRO/j/SgHAhonRLAsIS0PQFmCKu/S09O34ZjhATwlpcFpPQORagVXWOHmahYQCZg1yb6vxiVgecz45jfE0QiOV7Av/B/Ci+wRO92LhsONgrCKOFi06T36dipcZ/kG1T4pxXhJCO2vzk/TxSHyG2nmKF2ssWR3FM1KjzfmfYI9VYjHGCiIMg4KN+maazyuMRePtJ7urwqMGum3x80JRMYY9jDPkf0zV9yKN8AId4Pt5x7ZY8UMphBn8IPQQHaLsxSPRvjY/RZCfBRR6tsQprrewBTMvPgNzsDr1AJgCBq3amk/fZMPcZ2Jo4uzMGm6D/w6JPay0GGftQN9J1I9RVgtSPT31awmYNLVxtH5a1Co0r0Uf9drr3xGB67JTBGMhc5sHnXVQi1L9mE1G63bq7cyPltYK/4ChKbDMGfRgsaAo0D6GuVkPnbjZdy4XBSX2DZvLsjKyvYE2BLC3XZBasJk8juciDwp2+s8elO43qj/Q6PGciIiWF+boVg1QXzz9uvX73NOf3mR/cV9vGzO3mhHXBI65I6E+CLy3YCiUyb7v53R6k0WJSQ43JqN8O2LJ6S9FZWwyv7w5Zdf/jaay+K438VS3wqV/vxhwk3k13Cu3XHAca6zihgv6TgSaQ2R3e0J/C4/TmeVV9V3QliZZZKx471b7BGCHWTGM/HHmZmNBUZJSzpJvtHyTF3PYIBFbJdqYaa7TofwlqRIG0RJy7y4c9Fx2HOLBs3yC88c0+Uite1rYVWRgDQO05vG274N7hPMylDHN/4AFO+7gkScz/tbDCwmMHha+hsupxpng3bFxGMkXHJjR7BBTA+Tfsqzzz77Hvd5HL02kn3ZxzH3SMTn7WWcbboVt4aP44VpFEo3l+PmMNZRWaHyHAJk3ieWQ8nRXJ7y7rvvvskzjzg+X7cJAhn2yiuvXImYvg171R8SW4Brh4sefAcn4Cyiy5gxY4TjdttGVxFWD3tQyKkWQuZh8X7NVqzTZ4Xpw37xayUVsHDmhWLp04rar2VRLgso3NAUGXSmRWWfu3svBFzsYUMtSPvQ+NEkWUBTtbazSdTbtglBgduMfuKJJ8ajKHOv7C0SRRPYJsgB5xwZt5o93+chmgvJazZJYeKfDqcaj9nK/WJ2g+bvoyjafIYpznSc468VN4ycJdpcxJShGgQ2nFYc58zVl1AWm0rbgqYNXBZHwGVA07cFfoRv5Mi5Ftj93t2pU6cfWMAMd4RPkRxgxtSKchKIbhNW2ZJToQphIIIZiXXlouWHT+6uQs2uck0VmxKj3rQ+LDZnWZVrfJkGM3GGIU5NhwPxm8mRTM5iIykenfDPW9MRUZXTYRAXT/nuu+9GQ1S/tRBVAZf741OnTn0Vp/0T2Zs8LPDOmjXrlvPOO+8lXBWegOu+Ey9Lb6WkpGg6IacMCgJyK3vDOK34HU5wLERVXDmGxFYTfZMI5zwIYv8mC6xu4DUZZ/2X4sDjO5z0HxTkcD3G4QUb6Z9SJyrAr0OLuxN5e1GG2yZNimMNyLALjUpklc++mXAx70zUJk0MDcAVFG5joEQq93Lv3cFXHHEbeN9mCIfTk+PS/G6/WhZsmZiF4EoQZ/DYcm4cNmzYG7gs/EKIaNm0lnuenyDP2+K5CQ71QTlVBmLQ/pFHHnkZLeH/ITb+GrvXBewTDsP8ZhD3KcJZBTNIOyH2B3F+/zlEdVqXLl228UyTJMGfcIPHeFwutsY5xHBE6VexuEpjz/sP9r8zENMPwKTmR5xZfMf97Sxc9uO56h7w2oyD0G9l/7WTaHEzbupxHN0r5G9JeTNo136tMCvCqhVTlSCd7EuhnjdrwOGcxZWgOaoJDjAg/Vxg1M85kJkt5gJVPcRzeHdzNIIDggchNEJQJQoXx5ml/+DM4YvnnnvuQ7wmbeW9U0B4n0verzhB5g9sL29DFHwDnFMSjiVGogw0ABeG/4EYPMah3DPwg3sVmsf9MMepj4mIuG73W7C0y1IBbTPhCOMAjvkXcKrOxzfccMNq0mRZ3gfrCu6q4cu4Hdz9EBxyXI4SUgPpBwj+Is5nfVSOksO+9htE7QNRNPtYjg9Ewawui5gC8D39pptuWsph6fchJh6BWU4iNsP1P/7444kQ2XZbtmx5HK58s5a2KcKqBUuVII2IgAt0+p3ROsOD3AZ3mVsJ8BmqTTD3s0l3oMBomnBDCJg5BBtPcB8NIUzthdAFIsgeKtq8eRw2vrV169YLUOKZg3h3rVaiA5x8nroYOCo9hCtXHPoL3HhgyklPT1+PuHIbPw9xkPc/pF2LW8RmHHXW86+//hrA5N8eUXQNiGypJyfJ64sg+JNPmvJ9AAAONUlEQVS2cTB6LspWm+H8FgwYMGABTizW0bYTN954oy+q8bgM4IuHy2/bp0+f4SgoXQqHWk+4efphH3B+AlGdytF6cjB6XLdu3eaCt2EotM1EBPwTLhmv5ndn8v4K97qVNE+wr715xowZd3MwQlNZtLDAuZIyEyHKExDPu3QFqwirx11ZcTLKZIsmaQZi4NHnZ57cVXEgV5C6gwHpZ2Rwx5hPrrv4aPbf7uStjGmZIMM4m7MXk2O6P9onXJyIeSF++RC8o+yN7oQr3cRkveyWW275FRHpftLkwmU6rR44ZR5O4ICAFE6p6YQ7vf6IgHvBbTXmsPSj2LXOuvrqq2ei8LSUdAcp07xKEILG79XkX8f1I7jalnh7ag+n1grFm7ZwYnXY703GuUQMRMbgzEkF+a2CEFHaZsKMKA9iKm3bhyh1Hdz3cpxfrOTYOIEj/7bbbrPKF4wf7JvWh2MeQ9tHiNckgUEWALh//B6t3rdxq7hG+kGec8358ssvhVMdwv7pwFGjRi1A1HsxOO+L3fAnJDlCmkxw+g5t/R0u9hnE7r2ESGMDO5DyDHC397Rp08Yp56oIq2C7kgbRTDNPtibdxmKT/o5BmVlVWpGlknaz2VlzST9vgbG4ddCR7J8ra1vdbFcE4rt67hwbVr58JtnSvVJ5BwEtRPP1KETzAJzpFjicbXJWaceOHbeibbqbJCIOzSafQxaZSVs8hSXg3ac67g/TET+2RgO4GyLrNogem/DOACHbPmjQoNfhor7HFnQ9z2TCt1smz7GqMp+6JARBtP1j0CxOwhFCLTH54QDvRhDp+nBotcFFDa4yNYi2axJ7z5K3iDLyidmYDRUiOj0GYcqEM/0HUfZ2NGh3ofxzADMaObkmmwMAyBL8QFv1iGzb9u3b9ymI44UsIAwsckxw06uQFLwPURQFsUwWJVbA4rRi4+uvv74cgtkf06g5devWXYNDiO5oDbch4Y+SmHxytusKfDTfjlj+OZTHLmFhYkD03p9F0/O8G0Mah3uuirBaodxsgS+imAoZLICLloacxF1o0mdjk/kZy9Un+h3JNWvAOWsYX62lCGfJ1LsgY8DSSTI7Sj8jjcgtMOm/KggrfPyig6f3aAFP+tpSjpb0FTSNkT2108JVCsfhSWACNTvDR6FoF2Yyv8lh30y2G3r16rWP02bERlM4ISFMVkSPfNI95k+RawIELhkRZU240kYQ4KaIbVsjtj0L8WJdbFQTyS/i3n0Qsa84rHzhRRddtOLcc88VjjcHDVaK0BZIL+bH4hBEopzusparzPOyByteoCIgrCb2ZePkCDjoqqQvgpAWIirNgZBKO0T5SExMhOhy5LZ123gWEgGctoDIvwSB7CMAAfsB9qE/wG3hdBY//wC3IyWqkygufQ+RHIztcHtExUvRyD4fBaaB4Gsl+czawSXt/ptn96OcFYlEYDD3Ooj4RfThOO4nkcZsLlUeIXYJKx+cXkaFRGdB3tMLrpI5K8Ln7ziE2sCR8S6BKoHdZm7hAUIQc7t8Dps/C5SvgalDzkU6zZeypcion4tP/lkDj5xco7VeS9udpT/T2SaZMEImALevxqumcoLdcCERtDmffv6n2KibW6zXfz44I2ulVrjoQz1lVMhxbmmjDEBmzTPD0fLQ9loIcVrLaSunMIXhTFrngUnSzJ1arohh82UPDs7xS0Sea5m4d1PCKd6XElEmVyFY8VzDxA4V4imKRnWZ8BvCKdbB+X4dRJWNIWLpcKPJpBE4zK4VmfwP1alT5y+I9mbElr9ecsklvyF+3MX7LOrwbCVA5rKhBFYhMBLN4tCy7yvqPfhORuP3fsTefUQ5iX4SEfVzHHiwlDbnOGuX4JaFhRzUvpG+6oOy01ufffZZBoS6F/mSiKVmN1IO6beT/lG49toQ8XZwrmGIjkdht7wGOGbyXhYgVsEuYWV0LYXbuYfR47Rzc3ErFqbT/2ZVYpB/mHRhbxfojAsxapeVmMPASwN2fkvLJsguDD8WG174QFGxPo62l348ZdOE4r3MLkYdp0cYijOijOGbI6JO7Ttvn/XgcAV3QqYu/2ia8YFioyHWWdtZxhpQrzihD0tgtR4a3ynz3ApUKe9z5V4yny0xll2/OsKF3hS2MFdf6LIcR/kD8RzcG/l3nLlhS4QublvvzEy33RWGhRs3FxeG3QWnG8bYqTDjvCx+8+gsnSlsW9ln5e+Z8Jj3TL+xp7YGpZM+3JdPYvXb8l6uiHgPIqKdOnHixBkk2kNZxTxnPcPh8ijKcE3GmYOcOHMWYtcm7OM2EA1UuMFkOFBRIEoQ0aFwysQiRMg5iI+PwuWuTU9P38he7DYI6u9or+5G7CuEIEfq4KqCBgzgmao9SkcXSV/B4c+HME6A49Z8Gg0LmhNDhw6dB6d6J/3Wgj45xCKoHgSzJtXbSPdkAYTt8UuPPvroq0gaklmo1cTO+C5OzFlG+n0aQFZJFAYUBhQGKgcGmHjD4EiGQdSO0CKhrA5jZGSkCS3S/RC7T5hgB5E3kYgfblM13Nu1YM/uWvbrXsJ0Yz6O9nchupU9SSN7rcVwn3nUkQlB3olJxmr2XBfgDGI6yjH/B3G+Bo3VXmgni+ekVGI00RW3XTk6wA+tAHcxcI8vyMIJ++BtcJEdpRqep3z11Vdic5pClH1su4F3CRMmTLj2jjvumA1RPob2dTb7x4Xste5nAdbebiYekq8GxFg8SpnHEApceey33shzGwbV5oGjQtVzhQGFAYWBioaBEk5zOX5iNyGK7SnwM5HmiCIOnCQCDEOO7JWigLSPPdQ/ES/+2KdPnwMkK0ILtDH+eruiIHM+Wrbt0bJtRJ5IiGgm6bdBRFdAXHdS3n6e7W/UqNExrifYjztJ+SIelFNd8oDBqe0qaVRwDwNiX9oVgqZjz3tthw4dMhD392TBM57Fy9kPPvjgHvbBl3/00UfrWeCIdECkOrJnLPSuOlzmSM64vQ1Fp2poEy+EQOpRXmpOv32HKc5u0tgN9ONRRMcfMS4GU09dpBLRcM1DSPwt8VjZTIqwlsWGulcYUBiojBg4gYLKV5hitMenbzwT7RE4FuE6tyM+3M/EegJx7mlsXhM5mLzN9OnTh27fvr0VWrqteF6LPbxiiO8/TNKz2LP9GbvU1ezp7QNRlglblJecbptVRqQGq03shYaj9GV2UUmftUIc/xCeqQbjD7hRCUzNEM33W7BgQS6LngOiFMZ+eSZKbNF4q2qKpngLON092BnvgDBuJ92r5JNt+wz6kS0uxwGlta3EpWwDDBcxP0poHV977bWzybG8bC5FWMtiQ90rDCgMVDoMMFnKWZwfQ0DDfvjhh1vQ6myGCcVINGFPYKeZJfadxBj2RpNRNIolrR5imsvZqjvghubAFS3FREO4HyGmoryk9kKDPEqEqEmAsLaWSJ+YbYqlLxHpQj+PJsFRmvsUTew6KI2Vng6EyL9ATt/h+Lh6cKoDsH/9ipOGftHYrxmMidmMoyHss8ayUKtFGcI9ryK/jRJTkNGkqlcYUBhQGPAvBpj8IjnlptUbb7xxK1zHm+yFzkNpRZSJ1qNItFo8JfH8PTigcSWmF/XIEyeE1r+QqdLdwQAKYrVY7Kwij3mvE0K6CUWzF9nPnooG91QcOCDRH/w83qmegLvtgvbvxUgsPhMnF8QDmMq8SJ+m4rrwBhZbRfT9poceemgs5jcdeF6D6JThRKpxduPGjbdI/RBTU//+/T8ij8Mj6Nxpm0qrMKAwoDBQYTHARCgEMwUOta742uW+NjGNKApLSrEohHuW/qnWo0cP8YNtwonFIbRzxb5UJA0JRDGXEUWjGKLY7ZoD9zVQIDsX7eEu3JuJoHhswrnEXBKYRHENAvsPykzf4qbxHtxEyqk2TYg2J9vwLJUtAXM+yYvt8VKe1T5Tk/qrMKAwoDCgMKAwUMEwABGLZJ/7Cfa9j3AV7tMjbpF8es5nPeuyyy57B0cisr9q5oC5GuFsj0I8V6Po9F8OPehL2hoWNHEfD5f6viU9Sm8reVbL8l5dFQYUBhQGFAYUBiocBpYsWVLv+eef7w1Bq+4t8JRRbdq0aX05pedFHHUsgageFD/JlGsW9bLXfgTO9jMUlgaQViQdMZjdvMQ+vDkNWwqb2Odt7i0cKr/CgMKAwoDCgMJApcKAEExiKhrGvbBPfQyTnUXYKB+lkWYCipOIvZx6cwdpkjhb93EU38zP4Vg34HGraaVChmqMwoDCgMKAwoDCgC8xAPGMJMppQ0MgsCssYl+I6z/YsXZHS/whC2HF6b+Igq32WJ1qP/kSUFWWwoDCgMKAwoDCQEXAAIRUnHpkQjC/x3HEfjSJ38M29hzsVuvj3WkInGy0mPZIwPuW2L4qEywzNtQfhQGFAYUBhQGFARcYgLhG4CN4JApOZreYmNrsbdq06V6yiecuEyY+H5JGjuErDYpjLUWFulEYUBhQGFAYUBiwxgDcayGE8xtxIoJXrkm4t6xnSYE42Mgeq9i0ivvK0qAIaykq1I3CgMKAwoDCgMKALQYgrjkQ109wKGHA7/QzHAOYLKkQA59i33WdEF/bXOqJwoDCgMKAwoDCgMKAUwxAXJNwh/kmpjbiU9GE3+kN7L3amNooDyNO0aheKgwoDCgMKAwoDJzBAJzpie7duy/Ez7T5MGoOcljNnuuh8vhRouDyGFG/FQYUBhQGFAYUBhxgAI9P+3Agkcvh9cWcufsdyeSUIxUUBhQGFAYUBhQGFAY8wQBO+OvgU/hzvC89jWg40ZMyVB6FAYUBhQG/YYCJKYKotqT8hmFVsK8xIOOVKKfgxDkqWx2H5Agz6rnCgMKA3zFQMjmJv9ds2b/ye4WqAoWBAGDg/wGf4eCQryDGKgAAAABJRU5ErkJggg==;" vertex="1" parent="1">
          <mxGeometry x="839.5" y="490" width="196" height="50" as="geometry"/>
        </mxCell>
        <mxCell id="xlfRkcf_6DxHYjirSs4z-24" value="" style="endArrow=classic;html=1;exitX=0.5;exitY=1;exitDx=0;exitDy=0;entryX=0.5;entryY=0;entryDx=0;entryDy=0;dashed=1;" edge="1" parent="1" source="xlfRkcf_6DxHYjirSs4z-21" target="xlfRkcf_6DxHYjirSs4z-23">
          <mxGeometry width="50" height="50" relative="1" as="geometry">
            <mxPoint x="680" y="550" as="sourcePoint"/>
            <mxPoint x="730" y="500" as="targetPoint"/>
          </mxGeometry>
        </mxCell>
        <mxCell id="xlfRkcf_6DxHYjirSs4z-14" value="" style="rounded=1;whiteSpace=wrap;html=1;fillColor=#E6E6E6;" vertex="1" parent="1">
          <mxGeometry x="230" y="220" width="190" height="220" as="geometry"/>
        </mxCell>
        <mxCell id="xlfRkcf_6DxHYjirSs4z-4" value="&lt;font style=&quot;font-size: 18px&quot;&gt;mysql-bin.000001&lt;/font&gt;" style="text;html=1;strokeColor=none;fillColor=none;align=center;verticalAlign=middle;whiteSpace=wrap;rounded=0;" vertex="1" parent="1">
          <mxGeometry x="245" y="238.5" width="160" height="20" as="geometry"/>
        </mxCell>
        <mxCell id="xlfRkcf_6DxHYjirSs4z-5" value="&lt;font style=&quot;font-size: 18px&quot;&gt;mysql-bin.000002&lt;/font&gt;" style="text;html=1;strokeColor=none;fillColor=none;align=center;verticalAlign=middle;whiteSpace=wrap;rounded=0;" vertex="1" parent="1">
          <mxGeometry x="245" y="278.5" width="160" height="20" as="geometry"/>
        </mxCell>
        <mxCell id="xlfRkcf_6DxHYjirSs4z-6" value="&lt;font style=&quot;font-size: 18px&quot;&gt;mysql-bin.000003&lt;/font&gt;" style="text;html=1;strokeColor=none;fillColor=none;align=center;verticalAlign=middle;whiteSpace=wrap;rounded=0;" vertex="1" parent="1">
          <mxGeometry x="245" y="318.5" width="160" height="20" as="geometry"/>
        </mxCell>
        <mxCell id="xlfRkcf_6DxHYjirSs4z-7" value="&lt;font style=&quot;font-size: 18px&quot;&gt;mysql-bin.000004&lt;/font&gt;" style="text;html=1;strokeColor=none;fillColor=none;align=center;verticalAlign=middle;whiteSpace=wrap;rounded=0;" vertex="1" parent="1">
          <mxGeometry x="245" y="358.5" width="160" height="20" as="geometry"/>
        </mxCell>
        <mxCell id="xlfRkcf_6DxHYjirSs4z-8" value="&lt;span style=&quot;font-size: 18px&quot;&gt;.............&lt;/span&gt;" style="text;html=1;strokeColor=none;fillColor=none;align=center;verticalAlign=middle;whiteSpace=wrap;rounded=0;" vertex="1" parent="1">
          <mxGeometry x="280" y="398.5" width="80" height="20" as="geometry"/>
        </mxCell>
      </root>
    </mxGraphModel>
  </diagram>
</mxfile>
